<svg width="600" height="314" viewBox="0 0 600 314" fill="none" xmlns="http://www.w3.org/2000/svg">
<g filter="url(#filter0_d)">
<path d="M537.4 4H63.6C54.9844 4 48 10.3071 48 18.0873V287.913C48 295.693 54.9844 302 63.6 302H537.4C546.016 302 553 295.693 553 287.913V18.0873C553 10.3071 546.016 4 537.4 4Z" fill="black"/>
</g>
<path d="M537.4 4H63.6C54.9844 4 48 10.3071 48 18.0873V287.913C48 295.693 54.9844 302 63.6 302H537.4C546.016 302 553 295.693 553 287.913V18.0873C553 10.3071 546.016 4 537.4 4Z" fill="#F4F7FB"/>
<g filter="url(#filter1_i)">
<path d="M537.4 4H63.6C54.9844 4 48 10.3071 48 18.0873V287.913C48 295.693 54.9844 302 63.6 302H537.4C546.016 302 553 295.693 553 287.913V18.0873C553 10.3071 546.016 4 537.4 4Z" fill="#F4F7FB"/>
</g>
<path d="M600 299H0V303H600V299Z" fill="#EFF2F6"/>
<path fill-rule="evenodd" clip-rule="evenodd" d="M300.963 310H98.4752H96C14.4241 310 0 303 0 303L301 302L600 303C600 303 585.614 310 504 310H501.539H301.036C301.012 310 301 310 301 310H300.963Z" fill="url(#paint0_linear)"/>
<defs>
<filter id="filter0_d" x="40" y="0" width="521" height="314" filterUnits="userSpaceOnUse" color-interpolation-filters="sRGB">
<feFlood flood-opacity="0" result="BackgroundImageFix"/>
<feColorMatrix in="SourceAlpha" type="matrix" values="0 0 0 0 0 0 0 0 0 0 0 0 0 0 0 0 0 0 127 0"/>
<feOffset dy="4"/>
<feGaussianBlur stdDeviation="4"/>
<feColorMatrix type="matrix" values="0 0 0 0 0.898507 0 0 0 0 0.922361 0 0 0 0 0.954167 0 0 0 1 0"/>
<feBlend mode="normal" in2="BackgroundImageFix" result="effect1_dropShadow"/>
<feBlend mode="normal" in="SourceGraphic" in2="effect1_dropShadow" result="shape"/>
</filter>
<filter id="filter1_i" x="48" y="4" width="505" height="302" filterUnits="userSpaceOnUse" color-interpolation-filters="sRGB">
<feFlood flood-opacity="0" result="BackgroundImageFix"/>
<feBlend mode="normal" in="SourceGraphic" in2="BackgroundImageFix" result="shape"/>
<feColorMatrix in="SourceAlpha" type="matrix" values="0 0 0 0 0 0 0 0 0 0 0 0 0 0 0 0 0 0 127 0" result="hardAlpha"/>
<feOffset dy="4"/>
<feGaussianBlur stdDeviation="4"/>
<feComposite in2="hardAlpha" operator="arithmetic" k2="-1" k3="1"/>
<feColorMatrix type="matrix" values="0 0 0 0 1 0 0 0 0 1 0 0 0 0 1 0 0 0 1 0"/>
<feBlend mode="normal" in2="shape" result="effect1_innerShadow"/>
</filter>
<linearGradient id="paint0_linear" x1="300" y1="302" x2="300" y2="310" gradientUnits="userSpaceOnUse">
<stop stop-color="white"/>
<stop offset="1" stop-color="#8F9AAB" stop-opacity="0.24"/>
</linearGradient>
</defs>
</svg>
