<svg width="57" height="119" viewBox="0 0 57 119" fill="none" xmlns="http://www.w3.org/2000/svg">
<path fill-rule="evenodd" clip-rule="evenodd" d="M56.301 95.6829L55.8037 118.567H54.8053L53.8856 118.555L52.0783 118.515C50.8793 118.47 49.6868 118.412 48.4962 118.344C46.1167 118.204 43.7382 117.996 41.3513 117.73C36.5786 117.189 31.7827 116.424 26.8703 115.236C24.4086 114.649 21.9219 113.93 19.3594 113.039C18.0763 112.58 16.7775 112.075 15.4463 111.488C14.1124 110.901 12.7517 110.232 11.3419 109.411C9.93402 108.583 8.47159 107.616 6.95555 106.329C6.19937 105.689 5.43024 104.952 4.67406 104.095C3.91696 103.239 3.16727 102.257 2.48412 101.114C1.8019 99.9815 1.19455 98.6753 0.757297 97.2637C0.315424 95.8586 0.0621223 94.3333 0.00665717 92.8792C-0.031244 90.9684 0.0991077 89.5956 0.234997 88.2478C0.375509 86.9139 0.549299 85.6687 0.736957 84.4512C0.932933 83.2347 1.14094 82.0496 1.36003 80.8802C1.58004 79.7136 1.80652 78.558 2.04502 77.4108C2.28722 76.2673 2.53402 75.1331 2.78824 74.0025C3.8014 69.484 4.92829 65.0514 6.11432 60.6474C7.30682 56.2444 8.57327 51.8765 9.90628 47.5318C10.5774 45.3621 11.2541 43.1935 11.9723 41.0349L13.0521 37.7976C13.4265 36.7179 13.7898 35.6511 14.1863 34.5603L26.214 37.2938C26.1141 38.3939 25.9893 39.517 25.8784 40.631L25.516 43.9774C25.2821 46.208 25.0215 48.4331 24.7663 50.6591L23.2068 63.9587C22.6864 68.3728 22.1853 72.7777 21.7324 77.1243C21.5133 79.2976 21.3099 81.4552 21.138 83.5684C21.0529 84.6241 20.9836 85.6687 20.9309 86.6855C20.8699 87.6978 20.8311 88.6915 20.8246 89.5975V89.6594C21.0714 89.7934 21.4135 89.9672 21.8156 90.1447C22.3813 90.3943 23.0636 90.6652 23.8096 90.924C24.5611 91.1828 25.3792 91.4306 26.2343 91.6635C27.9491 92.1442 29.8183 92.5417 31.7457 92.9134C35.6125 93.6344 39.7188 94.1733 43.8741 94.6143C45.954 94.8343 48.0534 95.0266 50.1509 95.2059C51.201 95.2993 52.2502 95.3816 53.2948 95.4555L56.301 95.6829Z" fill="#EEA293"/>
<path fill-rule="evenodd" clip-rule="evenodd" d="M21.2946 90.4646C21.2502 90.5801 21.167 90.68 21.0524 90.7484C16.1456 93.627 11.9996 98.6605 11.9589 98.7113C11.7574 98.9572 11.3959 98.9933 11.1509 98.7917C10.905 98.5921 10.869 98.2297 11.0696 97.9838C11.2434 97.7712 15.3885 92.7405 20.4709 89.7574C20.7446 89.5975 21.0958 89.689 21.2567 89.9626C21.35 90.1207 21.3584 90.3065 21.2946 90.4646Z" fill="#E57165"/>
<path fill-rule="evenodd" clip-rule="evenodd" d="M20.2645 91.106C20.1656 91.3565 19.9003 91.509 19.6267 91.4582C17.079 90.9839 13.6836 93.2238 13.6503 93.2469C13.3859 93.4225 13.03 93.3514 12.8534 93.0879C12.6778 92.8244 12.749 92.4676 13.0124 92.292C13.1677 92.1884 16.8349 89.7702 19.8365 90.3294C20.148 90.3877 20.3542 90.6872 20.295 90.9987L20.2645 91.106Z" fill="#E57165"/>
<path fill-rule="evenodd" clip-rule="evenodd" d="M24.3458 40.7837C25.6872 40.3548 26.5765 38.0779 27.8226 36.6987C29.4644 34.8804 31.3677 31.6458 31.9603 29.5391C32.8533 26.3766 34.9683 16.9198 33.529 14.6023C32.0897 12.2839 29.6326 20.2995 29.0964 21.9329C28.5603 23.5673 27.5924 24.476 27.5924 24.476C27.5924 24.476 31.8041 5.65114 30.4553 3.93912C29.1085 2.22802 25.6391 12.7008 24.7979 15.2956C24.7979 15.2956 27.1838 0.933831 25.9867 0.118493C23.5832 -1.51865 20.4734 14.3499 20.4734 14.3499C20.4734 14.3499 21.8647 2.16701 19.8559 1.99599C17.7288 1.8148 16.2719 14.8685 16.2719 14.8685C16.2719 14.8685 16.0187 6.79373 14.3538 5.85544C12.688 4.91715 11.9105 21.9126 12.1056 24.5407C12.3016 27.1679 12.2433 34.2915 13.0735 37.6333C13.6383 39.9037 20.0981 42.1417 24.3458 40.7837Z" fill="#EEA293"/>
<path fill-rule="evenodd" clip-rule="evenodd" d="M14.3297 19.1816C14.2742 18.9191 14.4221 18.6501 14.6828 18.5595C20.7821 16.4481 26.3305 19.6143 26.5644 19.7502C26.8214 19.8999 26.9092 20.2318 26.7585 20.4897C26.6079 20.7476 26.2778 20.8345 26.0199 20.6848C25.9663 20.6543 20.6564 17.636 15.036 19.5819C14.754 19.679 14.4462 19.5302 14.3482 19.2482L14.3297 19.1816Z" fill="#E57165"/>
<path fill-rule="evenodd" clip-rule="evenodd" d="M17.2823 32.4979C17.2388 32.2881 17.322 32.0635 17.5106 31.9368C22.8704 28.3334 21.9894 23.3453 21.9811 23.2953C21.9247 23.0023 22.117 22.7185 22.41 22.663C22.7003 22.6076 22.9804 22.7952 23.0405 23.0818L23.0433 23.0929C23.0876 23.3258 24.061 28.8363 18.1143 32.8344C17.8656 33.0008 17.53 32.9352 17.3627 32.6874L17.2823 32.4979Z" fill="#E57165"/>
</svg>
