<svg width="280" height="271" viewBox="0 0 280 271" fill="none" xmlns="http://www.w3.org/2000/svg">
<rect width="280" height="271" rx="16" fill="white"/>
<rect width="232" height="149" transform="translate(24 98)" fill="white"/>
<rect x="64" y="105" width="192" height="1" fill="#F4F7FB"/>
<rect x="64" y="136" width="192" height="1" fill="#F4F7FB"/>
<rect x="64" y="167" width="192" height="1" fill="#F4F7FB"/>
<rect x="64" y="198" width="192" height="1" fill="#F4F7FB"/>
<rect x="64" y="229" width="192" height="1" fill="#F4F7FB"/>
<path d="M26.88 109.909H27.6328L27.6364 109.096C29.1598 108.986 30.0334 108.148 30.0369 106.958C30.0334 105.697 28.9929 105.122 27.8991 104.863L27.6648 104.803L27.679 102.775C28.2472 102.874 28.6129 103.215 28.6697 103.727H29.9375C29.9162 102.597 29.0284 101.773 27.6861 101.646L27.6896 100.818H26.9368L26.9332 101.646C25.6016 101.781 24.6428 102.597 24.6463 103.773C24.6463 104.817 25.3885 105.417 26.5852 105.726L26.9048 105.808L26.8906 107.956C26.255 107.857 25.7969 107.494 25.7507 106.852H24.4545C24.5043 108.183 25.4205 108.975 26.8835 109.096L26.88 109.909ZM27.6435 107.956L27.6577 106.006C28.304 106.195 28.7159 106.443 28.7195 106.947C28.7159 107.473 28.2933 107.849 27.6435 107.956ZM26.9119 104.611C26.4219 104.455 25.9744 104.195 25.9815 103.691C25.9851 103.233 26.3295 102.878 26.9261 102.775L26.9119 104.611ZM34.1985 101.727H32.945L31.1375 102.888V104.096L32.8385 103.009H32.8811V109H34.1985V101.727ZM38.8333 109.138C40.5876 109.142 41.6352 107.757 41.6352 105.371C41.6352 102.999 40.5805 101.628 38.8333 101.628C37.0862 101.628 36.035 102.995 36.0315 105.371C36.0315 107.754 37.0791 109.138 38.8333 109.138ZM38.8333 108.027C37.9278 108.027 37.3596 107.118 37.3632 105.371C37.3667 103.638 37.9314 102.725 38.8333 102.725C39.7389 102.725 40.3035 103.638 40.3071 105.371C40.3071 107.118 39.7424 108.027 38.8333 108.027ZM45.6033 109.138C47.3575 109.142 48.4051 107.757 48.4051 105.371C48.4051 102.999 47.3504 101.628 45.6033 101.628C43.8561 101.628 42.805 102.995 42.8014 105.371C42.8014 107.754 43.849 109.138 45.6033 109.138ZM45.6033 108.027C44.6977 108.027 44.1295 107.118 44.1331 105.371C44.1366 103.638 44.7013 102.725 45.6033 102.725C46.5088 102.725 47.0734 103.638 47.077 105.371C47.077 107.118 46.5124 108.027 45.6033 108.027ZM52.3732 109.138C54.1275 109.142 55.175 107.757 55.175 105.371C55.175 102.999 54.1203 101.628 52.3732 101.628C50.626 101.628 49.5749 102.995 49.5713 105.371C49.5713 107.754 50.6189 109.138 52.3732 109.138ZM52.3732 108.027C51.4676 108.027 50.8995 107.118 50.903 105.371C50.9066 103.638 51.4712 102.725 52.3732 102.725C53.2787 102.725 53.8434 103.638 53.8469 105.371C53.8469 107.118 53.2823 108.027 52.3732 108.027Z" fill="#8F9AAB"/>
<path d="M26.88 140.909H27.6328L27.6364 140.096C29.1598 139.986 30.0334 139.148 30.0369 137.958C30.0334 136.697 28.9929 136.122 27.8991 135.863L27.6648 135.803L27.679 133.775C28.2472 133.874 28.6129 134.215 28.6697 134.727H29.9375C29.9162 133.597 29.0284 132.773 27.6861 132.646L27.6896 131.818H26.9368L26.9332 132.646C25.6016 132.781 24.6428 133.597 24.6463 134.773C24.6463 135.817 25.3885 136.417 26.5852 136.726L26.9048 136.808L26.8906 138.956C26.255 138.857 25.7969 138.494 25.7507 137.852H24.4545C24.5043 139.183 25.4205 139.975 26.8835 140.096L26.88 140.909ZM27.6435 138.956L27.6577 137.006C28.304 137.195 28.7159 137.443 28.7195 137.947C28.7159 138.473 28.2933 138.849 27.6435 138.956ZM26.9119 135.611C26.4219 135.455 25.9744 135.195 25.9815 134.691C25.9851 134.233 26.3295 133.878 26.9261 133.775L26.9119 135.611ZM33.7689 140.099C35.3065 140.099 36.3789 139.055 36.3789 137.61C36.3789 136.211 35.4059 135.202 34.0849 135.202C33.4954 135.202 32.9734 135.437 32.7035 135.756H32.6609L32.8704 133.828H35.999V132.727H31.7802L31.4002 136.477L32.5899 136.673C32.8349 136.403 33.2966 136.222 33.7333 136.225C34.5324 136.229 35.1076 136.818 35.1041 137.642C35.1076 138.455 34.5466 139.034 33.7689 139.034C33.1119 139.034 32.5828 138.619 32.5366 138.022H31.2582C31.2937 139.229 32.3484 140.099 33.7689 140.099ZM40.3568 140.138C42.111 140.142 43.1586 138.757 43.1586 136.371C43.1586 133.999 42.1039 132.628 40.3568 132.628C38.6096 132.628 37.5585 133.995 37.5549 136.371C37.5549 138.754 38.6025 140.138 40.3568 140.138ZM40.3568 139.027C39.4512 139.027 38.8831 138.118 38.8866 136.371C38.8902 134.638 39.4548 133.725 40.3568 133.725C41.2623 133.725 41.827 134.638 41.8305 136.371C41.8305 138.118 41.2659 139.027 40.3568 139.027ZM47.1267 140.138C48.881 140.142 49.9286 138.757 49.9286 136.371C49.9286 133.999 48.8739 132.628 47.1267 132.628C45.3795 132.628 44.3284 133.995 44.3249 136.371C44.3249 138.754 45.3724 140.138 47.1267 140.138ZM47.1267 139.027C46.2212 139.027 45.653 138.118 45.6565 136.371C45.6601 134.638 46.2247 133.725 47.1267 133.725C48.0322 133.725 48.5969 134.638 48.6004 136.371C48.6004 138.118 48.0358 139.027 47.1267 139.027Z" fill="#8F9AAB"/>
<path d="M26.88 171.909H27.6328L27.6364 171.096C29.1598 170.986 30.0334 170.148 30.0369 168.958C30.0334 167.697 28.9929 167.122 27.8991 166.863L27.6648 166.803L27.679 164.775C28.2472 164.874 28.6129 165.215 28.6697 165.727H29.9375C29.9162 164.597 29.0284 163.773 27.6861 163.646L27.6896 162.818H26.9368L26.9332 163.646C25.6016 163.781 24.6428 164.597 24.6463 165.773C24.6463 166.817 25.3885 167.417 26.5852 167.726L26.9048 167.808L26.8906 169.956C26.255 169.857 25.7969 169.494 25.7507 168.852H24.4545C24.5043 170.183 25.4205 170.975 26.8835 171.096L26.88 171.909ZM27.6435 169.956L27.6577 168.006C28.304 168.195 28.7159 168.443 28.7195 168.947C28.7159 169.473 28.2933 169.849 27.6435 169.956ZM26.9119 166.611C26.4219 166.455 25.9744 166.195 25.9815 165.691C25.9851 165.233 26.3295 164.878 26.9261 164.775L26.9119 166.611ZM31.2404 171H36.2262V169.899H33.0586V169.849L34.3122 168.575C35.7255 167.218 36.1162 166.558 36.1162 165.737C36.1162 164.519 35.1254 163.628 33.6623 163.628C32.2206 163.628 31.1978 164.523 31.1978 165.904H32.4514C32.4514 165.162 32.9201 164.697 33.6446 164.697C34.337 164.697 34.852 165.119 34.852 165.805C34.852 166.412 34.4826 166.845 33.7653 167.573L31.2404 170.048V171ZM40.0798 171.099C41.6174 171.099 42.6899 170.055 42.6899 168.61C42.6899 167.211 41.7169 166.202 40.3958 166.202C39.8064 166.202 39.2843 166.437 39.0145 166.756H38.9718L39.1814 164.828H42.3099V163.727H38.0912L37.7112 167.477L38.9008 167.673C39.1458 167.403 39.6075 167.222 40.0443 167.225C40.8433 167.229 41.4186 167.818 41.415 168.642C41.4186 169.455 40.8575 170.034 40.0798 170.034C39.4228 170.034 38.8937 169.619 38.8475 169.022H37.5691C37.6047 170.229 38.6593 171.099 40.0798 171.099ZM46.6677 171.138C48.422 171.142 49.4696 169.757 49.4696 167.371C49.4696 164.999 48.4149 163.628 46.6677 163.628C44.9206 163.628 43.8694 164.995 43.8659 167.371C43.8659 169.754 44.9135 171.138 46.6677 171.138ZM46.6677 170.027C45.7622 170.027 45.194 169.118 45.1975 167.371C45.2011 165.638 45.7657 164.725 46.6677 164.725C47.5733 164.725 48.1379 165.638 48.1414 167.371C48.1414 169.118 47.5768 170.027 46.6677 170.027Z" fill="#8F9AAB"/>
<path d="M26.88 202.909H27.6328L27.6364 202.096C29.1598 201.986 30.0334 201.148 30.0369 199.958C30.0334 198.697 28.9929 198.122 27.8991 197.863L27.6648 197.803L27.679 195.775C28.2472 195.874 28.6129 196.215 28.6697 196.727H29.9375C29.9162 195.597 29.0284 194.773 27.6861 194.646L27.6896 193.818H26.9368L26.9332 194.646C25.6016 194.781 24.6428 195.597 24.6463 196.773C24.6463 197.817 25.3885 198.417 26.5852 198.726L26.9048 198.808L26.8906 200.956C26.255 200.857 25.7969 200.494 25.7507 199.852H24.4545C24.5043 201.183 25.4205 201.975 26.8835 202.096L26.88 202.909ZM27.6435 200.956L27.6577 199.006C28.304 199.195 28.7159 199.443 28.7195 199.947C28.7159 200.473 28.2933 200.849 27.6435 200.956ZM26.9119 197.611C26.4219 197.455 25.9744 197.195 25.9815 196.691C25.9851 196.233 26.3295 195.878 26.9261 195.775L26.9119 197.611ZM34.1985 194.727H32.945L31.1375 195.888V197.096L32.8385 196.009H32.8811V202H34.1985V194.727ZM38.8333 202.138C40.5876 202.142 41.6352 200.757 41.6352 198.371C41.6352 195.999 40.5805 194.628 38.8333 194.628C37.0862 194.628 36.035 195.995 36.0315 198.371C36.0315 200.754 37.0791 202.138 38.8333 202.138ZM38.8333 201.027C37.9278 201.027 37.3596 200.118 37.3632 198.371C37.3667 196.638 37.9314 195.725 38.8333 195.725C39.7389 195.725 40.3035 196.638 40.3071 198.371C40.3071 200.118 39.7424 201.027 38.8333 201.027ZM45.6033 202.138C47.3575 202.142 48.4051 200.757 48.4051 198.371C48.4051 195.999 47.3504 194.628 45.6033 194.628C43.8561 194.628 42.805 195.995 42.8014 198.371C42.8014 200.754 43.849 202.138 45.6033 202.138ZM45.6033 201.027C44.6977 201.027 44.1295 200.118 44.1331 198.371C44.1366 196.638 44.7013 195.725 45.6033 195.725C46.5088 195.725 47.0734 196.638 47.077 198.371C47.077 200.118 46.5124 201.027 45.6033 201.027Z" fill="#8F9AAB"/>
<path d="M26.88 233.909H27.6328L27.6364 233.096C29.1598 232.986 30.0334 232.148 30.0369 230.958C30.0334 229.697 28.9929 229.122 27.8991 228.863L27.6648 228.803L27.679 226.775C28.2472 226.874 28.6129 227.215 28.6697 227.727H29.9375C29.9162 226.597 29.0284 225.773 27.6861 225.646L27.6896 224.818H26.9368L26.9332 225.646C25.6016 225.781 24.6428 226.597 24.6463 227.773C24.6463 228.817 25.3885 229.417 26.5852 229.726L26.9048 229.808L26.8906 231.956C26.255 231.857 25.7969 231.494 25.7507 230.852H24.4545C24.5043 232.183 25.4205 232.975 26.8835 233.096L26.88 233.909ZM27.6435 231.956L27.6577 230.006C28.304 230.195 28.7159 230.443 28.7195 230.947C28.7159 231.473 28.2933 231.849 27.6435 231.956ZM26.9119 228.611C26.4219 228.455 25.9744 228.195 25.9815 227.691C25.9851 227.233 26.3295 226.878 26.9261 226.775L26.9119 228.611ZM33.9287 233.138C35.6829 233.142 36.7305 231.757 36.7305 229.371C36.7305 226.999 35.6758 225.628 33.9287 225.628C32.1815 225.628 31.1304 226.995 31.1268 229.371C31.1268 231.754 32.1744 233.138 33.9287 233.138ZM33.9287 232.027C33.0231 232.027 32.4549 231.118 32.4585 229.371C32.462 227.638 33.0267 226.725 33.9287 226.725C34.8342 226.725 35.3988 227.638 35.4024 229.371C35.4024 231.118 34.8377 232.027 33.9287 232.027Z" fill="#8F9AAB"/>
<path d="M67.1861 238.727V246H68.4503V240.993H68.5178L70.5277 245.979H71.4723L73.4822 241.004H73.5497V246H74.8139V238.727H73.2017L71.0426 243.997H70.9574L68.7983 238.727H67.1861Z" fill="#8F9AAB"/>
<path d="M98.0969 239.832H100.345V246H101.652V239.832H103.9V238.727H98.0969V239.832Z" fill="#8F9AAB"/>
<path d="M127.214 246H128.513L129.973 240.897H130.03L131.486 246H132.785L134.838 238.727H133.421L132.111 244.075H132.047L130.644 238.727H129.355L127.956 244.072H127.888L126.578 238.727H125.161L127.214 246Z" fill="#8F9AAB"/>
<path d="M156.097 239.832H158.345V246H159.652V239.832H161.9V238.727H156.097V239.832Z" fill="#8F9AAB"/>
<path d="M185.788 246H187.105V242.911H190.127V241.806H187.105V239.832H190.447V238.727H185.788V246Z" fill="#8F9AAB"/>
<path d="M219.423 240.727H220.69C220.666 239.498 219.618 238.628 218.07 238.628C216.543 238.628 215.396 239.487 215.399 240.773C215.399 241.817 216.141 242.417 217.338 242.726L218.166 242.939C218.95 243.138 219.469 243.383 219.472 243.947C219.469 244.569 218.879 244.984 218.02 244.984C217.196 244.984 216.557 244.615 216.504 243.852H215.207C215.261 245.297 216.337 246.11 218.031 246.11C219.774 246.11 220.786 245.24 220.79 243.958C220.786 242.697 219.746 242.122 218.652 241.863L217.97 241.692C217.374 241.55 216.727 241.298 216.734 240.691C216.738 240.144 217.228 239.743 218.052 239.743C218.837 239.743 219.355 240.109 219.423 240.727Z" fill="#8F9AAB"/>
<path d="M249.423 240.727H250.69C250.666 239.498 249.618 238.628 248.07 238.628C246.543 238.628 245.396 239.487 245.399 240.773C245.399 241.817 246.141 242.417 247.338 242.726L248.166 242.939C248.95 243.138 249.469 243.383 249.472 243.947C249.469 244.569 248.879 244.984 248.02 244.984C247.196 244.984 246.557 244.615 246.504 243.852H245.207C245.261 245.297 246.337 246.11 248.031 246.11C249.774 246.11 250.786 245.24 250.79 243.958C250.786 242.697 249.746 242.122 248.652 241.863L247.97 241.692C247.374 241.55 246.727 241.298 246.734 240.691C246.738 240.144 247.228 239.743 248.052 239.743C248.837 239.743 249.355 240.109 249.423 240.727Z" fill="#8F9AAB"/>
<path d="M67.8638 173.035C67.8638 170.826 69.6546 169.035 71.8638 169.035C74.0729 169.035 75.8638 170.826 75.8638 173.035V230.035H67.8638V173.035Z" fill="#157663"/>
<path d="M96.8638 141.035C96.8638 138.826 98.6546 137.035 100.864 137.035C103.073 137.035 104.864 138.826 104.864 141.035V230.035H96.8638V141.035Z" fill="#157663"/>
<path d="M125.864 156.035C125.864 153.826 127.655 152.035 129.864 152.035C132.073 152.035 133.864 153.826 133.864 156.035V230.035H125.864V156.035Z" fill="#157663"/>
<path d="M154.864 211.035C154.864 208.826 156.655 207.035 158.864 207.035C161.073 207.035 162.864 208.826 162.864 211.035V230.035H154.864V211.035Z" fill="#157663"/>
<path d="M183.864 186.035C183.864 183.826 185.655 182.035 187.864 182.035C190.073 182.035 191.864 183.826 191.864 186.035V230.035H183.864V186.035Z" fill="#157663"/>
<path d="M213.864 207.035C213.864 204.826 215.655 203.035 217.864 203.035C220.073 203.035 221.864 204.826 221.864 207.035V230.035H213.864V207.035Z" fill="#157663"/>
<path d="M243.864 150.035C243.864 147.826 245.655 146.035 247.864 146.035C250.073 146.035 251.864 147.826 251.864 150.035V230.035H243.864V150.035Z" fill="#157663"/>
<path d="M33.1932 72.9091H35.875L35.8977 70.2841C40.8182 69.9091 43.6705 67.2955 43.6818 63.3523C43.6705 59.4773 40.75 57.4205 36.7045 56.5114L36.0341 56.3523L36.0795 50.6705C37.5909 51.0227 38.5114 51.9886 38.6477 53.4205H43.3636C43.3068 49.6591 40.5 46.9659 36.125 46.4886L36.1477 43.8182H33.4659L33.4432 46.4659C29 46.8977 25.8636 49.5795 25.8864 53.4545C25.875 56.8864 28.2955 58.8523 32.2273 59.7955L33.3182 60.0682L33.2614 66.0795C31.4091 65.7273 30.1591 64.5909 30.0341 62.6932H25.2727C25.3864 67.2841 28.3977 69.8523 33.2159 70.2727L33.1932 72.9091ZM35.9432 66.0795L35.9886 60.7727C37.75 61.3295 38.7045 62.0455 38.7159 63.3409C38.7045 64.7159 37.6591 65.7386 35.9432 66.0795ZM33.3523 55.6591C31.9318 55.1705 30.9091 54.4318 30.9318 53.125C30.9318 51.9091 31.7955 50.9659 33.3977 50.6364L33.3523 55.6591ZM63.1064 46.7273H58.4814L52.72 50.375V54.7386L58.0495 51.3977H58.1859V70H63.1064V46.7273ZM70.8726 70.2955C72.3272 70.2955 73.5885 69.0795 73.5999 67.5682C73.5885 66.0795 72.3272 64.8636 70.8726 64.8636C69.3726 64.8636 68.134 66.0795 68.1453 67.5682C68.134 69.0795 69.3726 70.2955 70.8726 70.2955ZM84.5394 70.3182C89.7212 70.3409 93.2553 66.9432 93.244 62.2045C93.2553 57.8409 90.2099 54.6932 86.0849 54.6932C83.5281 54.6932 81.2667 55.9205 80.2212 57.9773H80.0622C80.0849 53.375 81.6758 50.5568 84.7099 50.5568C86.494 50.5568 87.7781 51.5227 88.1531 53.2273H93.0053C92.5394 49.3182 89.3576 46.3409 84.7099 46.3409C78.9599 46.3409 75.2667 51 75.244 58.8864C75.2667 67.4091 79.7553 70.2955 84.5394 70.3182ZM84.5167 66.4545C82.244 66.4545 80.5622 64.625 80.5622 62.3523C80.5735 60.0909 82.2894 58.25 84.5508 58.25C86.8235 58.25 88.4826 60.0341 88.4712 62.3409C88.4826 64.6705 86.7894 66.4545 84.5167 66.4545ZM104.774 70.3182C110.024 70.3182 113.797 67.5114 113.809 63.7386C113.797 60.8295 111.559 58.4545 108.763 57.9886V57.8295C111.195 57.3295 112.934 55.2273 112.945 52.6705C112.934 49.0682 109.479 46.4091 104.774 46.4091C100.059 46.4091 96.604 49.0682 96.6153 52.6705C96.604 55.2159 98.3199 57.3295 100.797 57.8295V57.9886C97.9563 58.4545 95.7403 60.8295 95.7517 63.7386C95.7403 67.5114 99.5244 70.3182 104.774 70.3182ZM104.774 66.7045C102.434 66.7045 100.865 65.3182 100.865 63.3523C100.865 61.3409 102.513 59.8864 104.774 59.8864C107.024 59.8864 108.684 61.3409 108.684 63.3523C108.684 65.3295 107.104 66.7045 104.774 66.7045ZM104.774 56.3068C102.809 56.3068 101.411 55.0227 101.411 53.1818C101.411 51.3636 102.786 50.1136 104.774 50.1136C106.752 50.1136 108.138 51.375 108.138 53.1818C108.138 55.0227 106.729 56.3068 104.774 56.3068ZM125.734 70.5114C131.586 70.5114 135.12 66.0568 135.132 58.3864C135.143 50.7727 131.563 46.4091 125.734 46.4091C119.893 46.4091 116.348 50.7614 116.336 58.3864C116.313 66.0341 119.87 70.5 125.734 70.5114ZM125.734 66.4318C123.063 66.4318 121.336 63.75 121.348 58.3864C121.359 53.1023 123.075 50.4432 125.734 50.4432C128.382 50.4432 130.109 53.1023 130.109 58.3864C130.12 63.75 128.393 66.4318 125.734 66.4318Z" fill="#157663"/>
<path d="M26.2479 33H27.5476L29.0071 27.897H29.0639L30.5199 33H31.8196L33.8722 25.7273H32.4553L31.1449 31.0753H31.081L29.6783 25.7273H28.3892L26.9901 31.0717H26.9226L25.6122 25.7273H24.1953L26.2479 33ZM34.8857 33H39.6442V31.8956H36.2032V29.9105H39.3708V28.8061H36.2032V26.8317H39.6158V25.7273H34.8857V33ZM41.0599 33H45.8184V31.8956H42.3774V29.9105H45.545V28.8061H42.3774V26.8317H45.79V25.7273H41.0599V33ZM47.2341 33H48.5516V30.8338L49.3577 29.8821L51.5274 33H53.1113L50.2739 28.9908L53.0864 25.7273H51.4777L48.6404 29.0689H48.5516V25.7273H47.2341V33ZM54.1017 33H58.6223V31.8956H55.4192V25.7273H54.1017V33ZM58.6362 25.7273L61.2818 30.2869V33H62.5957V30.2869L65.2413 25.7273H63.7534L61.9743 28.9446H61.9032L60.1241 25.7273H58.6362ZM68.8548 33H70.1723V30.3366H71.5146L72.9422 33H74.4124L72.8392 30.1165C73.695 29.772 74.146 29.0405 74.146 28.0533C74.146 26.6648 73.2511 25.7273 71.5821 25.7273H68.8548V33ZM70.1723 29.2429V26.8281H71.3797C72.3634 26.8281 72.8037 27.2791 72.8037 28.0533C72.8037 28.8274 72.3634 29.2429 71.3868 29.2429H70.1723ZM75.4587 33H80.2173V31.8956H76.7762V29.9105H79.9438V28.8061H76.7762V26.8317H80.1888V25.7273H75.4587V33ZM82.606 25.7273H81.1607L83.721 33H85.3474L87.9114 25.7273H86.4625L84.5733 31.4517H84.4987L82.606 25.7273ZM88.9693 33H93.7278V31.8956H90.2868V29.9105H93.4544V28.8061H90.2868V26.8317H93.6994V25.7273H88.9693V33ZM101.12 25.7273H99.8097V30.6847H99.7458L96.3225 25.7273H95.1435V33H96.461V28.0462H96.5213L99.9482 33H101.12V25.7273ZM107.244 25.7273V30.5036C107.244 31.402 106.523 31.924 105.607 31.924C104.694 31.924 103.973 31.402 103.973 30.5036V25.7273H102.656V30.5355C102.656 32.1832 103.92 33.1101 105.607 33.1101C107.286 33.1101 108.558 32.1832 108.558 30.5355V25.7273H107.244ZM110.09 33H114.848V31.8956L111.407 31.8956V29.9105L114.575 29.9105V28.8061L111.407 28.8061V26.8317H114.82V25.7273H110.09V33Z" fill="#8F9AAB"/>
</svg>
