<svg width="150" height="134" viewBox="0 0 150 134" fill="none" xmlns="http://www.w3.org/2000/svg">
<rect width="150" height="134" rx="16" fill="white"/>
<path d="M77.2443 103.091C77.2443 104.205 77.9403 105.139 79.233 105.139C80.5057 105.139 81.2017 104.205 81.2017 103.091V102.554C81.2017 101.44 80.5256 100.506 79.233 100.506C77.9602 100.506 77.2443 101.44 77.2443 102.554V103.091ZM72.1733 97.2642C72.1733 98.3778 72.8693 99.3125 74.1619 99.3125C75.4347 99.3125 76.1307 98.3778 76.1307 97.2642V96.7273C76.1307 95.6136 75.4545 94.679 74.1619 94.679C72.8892 94.679 72.1733 95.6136 72.1733 96.7273V97.2642ZM72.5511 105H73.6847L80.6847 94.8182H79.5511L72.5511 105ZM78.2585 102.554C78.2585 101.938 78.5369 101.361 79.233 101.361C79.9489 101.361 80.1875 101.938 80.1875 102.554V103.091C80.1875 103.707 79.929 104.284 79.233 104.284C78.517 104.284 78.2585 103.707 78.2585 103.091V102.554ZM73.1875 96.7273C73.1875 96.1108 73.4659 95.5341 74.1619 95.5341C74.8778 95.5341 75.1165 96.1108 75.1165 96.7273V97.2642C75.1165 97.8807 74.858 98.4574 74.1619 98.4574C73.446 98.4574 73.1875 97.8807 73.1875 97.2642V96.7273ZM83.429 105H89.8523V103.906H85.1193V103.827L87.4062 101.381C89.1562 99.5064 89.6733 98.6314 89.6733 97.5028C89.6733 95.9318 88.4006 94.679 86.6108 94.679C84.826 94.679 83.4688 95.892 83.4688 97.6818H84.642C84.642 96.5234 85.3928 95.7528 86.571 95.7528C87.6747 95.7528 88.5199 96.429 88.5199 97.5028C88.5199 98.4425 87.968 99.1385 86.7898 100.426L83.429 104.105V105ZM91.9055 105H98.3288V103.906H93.5959V103.827L95.8828 101.381C97.6328 99.5064 98.1499 98.6314 98.1499 97.5028C98.1499 95.9318 96.8771 94.679 95.0874 94.679C93.3026 94.679 91.9453 95.892 91.9453 97.6818H93.1186C93.1186 96.5234 93.8693 95.7528 95.0476 95.7528C96.1513 95.7528 96.9964 96.429 96.9964 97.5028C96.9964 98.4425 96.4446 99.1385 95.2663 100.426L91.9055 104.105V105Z" fill="#157663"/>
<path d="M61.6694 98.276L55.9314 104.014L54.9888 103.071L60.7261 97.3333H55.6694V96H63.0028V103.333H61.6694V98.276Z" fill="#157663"/>
<path d="M35.7173 65.7273V73H36.9815V67.9929H37.049L39.0589 72.9787H40.0036L42.0135 68.0036H42.081V73H43.3452V65.7273H41.733L39.5739 70.9972H39.4886L37.3295 65.7273H35.7173ZM51.3784 69.3636C51.3784 67.0128 49.9438 65.6278 48.0368 65.6278C46.1263 65.6278 44.6952 67.0128 44.6952 69.3636C44.6952 71.7109 46.1263 73.0994 48.0368 73.0994C49.9438 73.0994 51.3784 71.7145 51.3784 69.3636ZM50.0538 69.3636C50.0538 71.0185 49.2229 71.9169 48.0368 71.9169C46.8543 71.9169 46.0197 71.0185 46.0197 69.3636C46.0197 67.7088 46.8543 66.8104 48.0368 66.8104C49.2229 66.8104 50.0538 67.7088 50.0538 69.3636ZM58.7005 65.7273H57.3902V70.6847H57.3262L53.9029 65.7273H52.724V73H54.0414V68.0462H54.1018L57.5287 73H58.7005V65.7273ZM59.9165 66.8317H62.1643V73H63.4712V66.8317H65.719V65.7273H59.9165V66.8317ZM66.9376 73H71.4582V71.8956H68.2551V65.7273H66.9376V73ZM71.4721 65.7273L74.1177 70.2869V73H75.4316V70.2869L78.0772 65.7273H76.5893L74.8102 68.9446H74.7392L72.96 65.7273H71.4721ZM81.6908 73H83.0082V70.3366H84.3506L85.7781 73H87.2483L85.6751 70.1165C86.531 69.772 86.982 69.0405 86.982 68.0533C86.982 66.6648 86.0871 65.7273 84.418 65.7273H81.6908V73ZM83.0082 69.2429V66.8281H84.2156C85.1993 66.8281 85.6396 67.2791 85.6396 68.0533C85.6396 68.8274 85.1993 69.2429 84.2227 69.2429H83.0082ZM88.2947 73H93.0532V71.8956H89.6121V69.9105H92.7798V68.8061H89.6121V66.8317H93.0248V65.7273H88.2947V73ZM95.4028 73L96.003 71.2067H98.7374L99.3411 73H100.747L98.1834 65.7273H96.557L93.9966 73H95.4028ZM96.3581 70.1484L97.3418 67.2188H97.3986L98.3822 70.1484H96.3581ZM107.689 68.1811C107.465 66.5653 106.222 65.6278 104.61 65.6278C102.71 65.6278 101.279 67.0128 101.279 69.3636C101.279 71.7109 102.692 73.0994 104.61 73.0994C106.339 73.0994 107.486 71.9808 107.689 70.5923L106.36 70.5852C106.194 71.4375 105.498 71.9169 104.627 71.9169C103.449 71.9169 102.603 71.0327 102.603 69.3636C102.603 67.723 103.441 66.8104 104.631 66.8104C105.515 66.8104 106.208 67.3111 106.36 68.1811H107.689ZM108.995 73H110.313V69.9105H113.683V73H115.004V65.7273H113.683V68.8061H110.313V65.7273H108.995V73Z" fill="#8F9AAB"/>
<path d="M36.4632 52H53.0541V47.9773H43.2814V47.8182L46.6791 44.4886C51.4632 40.125 52.7473 37.9432 52.7473 35.2955C52.7473 31.2614 49.4519 28.4091 44.4632 28.4091C39.5769 28.4091 36.2246 31.3295 36.236 35.8977H40.9064C40.8951 33.6705 42.3041 32.3068 44.4291 32.3068C46.4746 32.3068 47.9973 33.5795 47.9973 35.625C47.9973 37.4773 46.861 38.75 44.7473 40.7841L36.4632 48.4545V52ZM56.8999 52H61.9795L71.6386 32.8068V28.7273L55.309 28.7273V32.75H66.5477V32.9091L56.8999 52ZM73.2457 52.2955C74.7003 52.2955 75.9616 51.0795 75.973 49.5682C75.9616 48.0795 74.7003 46.8636 73.2457 46.8636C71.7457 46.8636 70.5071 48.0795 70.5185 49.5682C70.5071 51.0795 71.7457 52.2955 73.2457 52.2955ZM86.8501 52.3182C92.1001 52.3182 95.8728 49.5114 95.8841 45.7386C95.8728 42.8295 93.6341 40.4545 90.8387 39.9886V39.8295C93.2705 39.3295 95.0091 37.2273 95.0205 34.6705C95.0091 31.0682 91.5546 28.4091 86.8501 28.4091C82.1341 28.4091 78.6796 31.0682 78.691 34.6705C78.6796 37.2159 80.3955 39.3295 82.8728 39.8295V39.9886C80.0319 40.4545 77.816 42.8295 77.8273 45.7386C77.816 49.5114 81.6001 52.3182 86.8501 52.3182ZM86.8501 48.7045C84.5091 48.7045 82.941 47.3182 82.941 45.3523C82.941 43.3409 84.5887 41.8864 86.8501 41.8864C89.1001 41.8864 90.7591 43.3409 90.7591 45.3523C90.7591 47.3295 89.1796 48.7045 86.8501 48.7045ZM86.8501 38.3068C84.8841 38.3068 83.4864 37.0227 83.4864 35.1818C83.4864 33.3636 84.8614 32.1136 86.8501 32.1136C88.8273 32.1136 90.2137 33.375 90.2137 35.1818C90.2137 37.0227 88.8046 38.3068 86.8501 38.3068ZM98.7299 52H103.571V46.4545L104.878 44.9659L109.639 52H115.309L108.503 42.1023L114.98 34.5455H109.423L103.832 41.1705H103.571V28.7273H98.7299V52Z" fill="#157663"/>
</svg>
