<svg width="680" height="378" viewBox="0 0 680 378" fill="none" xmlns="http://www.w3.org/2000/svg">
<path fill-rule="evenodd" clip-rule="evenodd" d="M276.103 65.8351C276.103 65.8351 267.005 60.4901 262.501 67.6951C257.997 74.8991 270.827 84.0702 278.472 82.5958C286.117 81.1213 285.963 69.8166 276.103 65.8351Z" fill="#E3CAB8"/>
<path fill-rule="evenodd" clip-rule="evenodd" d="M605.617 174.949C605.617 174.949 607.595 158.311 594.248 156.349C580.9 154.386 575.732 178.891 582.747 189.071C589.761 199.252 606.104 191.826 605.617 174.949Z" fill="#E3CAB8"/>
<path fill-rule="evenodd" clip-rule="evenodd" d="M247.86 0.683146C247.86 0.305983 248.165 0 248.543 0H252.91C253.288 0 253.593 0.305983 253.593 0.683146C253.593 1.05938 253.288 1.36537 252.91 1.36537H248.543C248.165 1.36537 247.86 1.05938 247.86 0.683146ZM236.941 0.683146C236.941 0.305983 237.246 0 237.623 0H241.991C242.367 0 242.673 0.305983 242.673 0.683146C242.673 1.05938 242.367 1.36537 241.991 1.36537H237.623C237.246 1.36537 236.941 1.05938 236.941 0.683146ZM226.021 0.683146C226.021 0.305983 226.327 0 226.703 0H231.072C231.448 0 231.754 0.305983 231.754 0.683146C231.754 1.05938 231.448 1.36537 231.072 1.36537H226.703C226.327 1.36537 226.021 1.05938 226.021 0.683146ZM215.102 0.683146C215.102 0.305983 215.407 0 215.784 0H220.152C220.529 0 220.834 0.305983 220.834 0.683146C220.834 1.05938 220.529 1.36537 220.152 1.36537H215.784C215.407 1.36537 215.102 1.05938 215.102 0.683146ZM204.182 0.683146C204.182 0.305983 204.488 0 204.864 0H209.233C209.609 0 209.915 0.305983 209.915 0.683146C209.915 1.05938 209.609 1.36537 209.233 1.36537H204.864C204.488 1.36537 204.182 1.05938 204.182 0.683146ZM193.262 0.683146C193.262 0.305983 193.567 0 193.945 0H198.312C198.69 0 198.995 0.305983 198.995 0.683146C198.995 1.05938 198.69 1.36537 198.312 1.36537H193.945C193.567 1.36537 193.262 1.05938 193.262 0.683146ZM182.342 0.683146C182.342 0.305983 182.648 0 183.024 0H187.393C187.769 0 188.075 0.305983 188.075 0.683146C188.075 1.05938 187.769 1.36537 187.393 1.36537H183.024C182.648 1.36537 182.342 1.05938 182.342 0.683146ZM171.423 0.683146C171.423 0.305983 171.728 0 172.105 0H176.473C176.85 0 177.155 0.305983 177.155 0.683146C177.155 1.05938 176.85 1.36537 176.473 1.36537H172.105C171.728 1.36537 171.423 1.05938 171.423 0.683146ZM160.503 0.683146C160.503 0.305983 160.809 0 161.185 0H165.554C165.93 0 166.236 0.305983 166.236 0.683146C166.236 1.05938 165.93 1.36537 165.554 1.36537H161.185C160.809 1.36537 160.503 1.05938 160.503 0.683146ZM149.583 0.683146C149.583 0.305983 149.889 0 150.266 0H154.635C155.011 0 155.317 0.305983 155.317 0.683146C155.317 1.05938 155.011 1.36537 154.635 1.36537H150.266C149.889 1.36537 149.583 1.05938 149.583 0.683146ZM138.664 0.683146C138.664 0.305983 138.969 0 139.346 0H143.714C144.092 0 144.397 0.305983 144.397 0.683146C144.397 1.05938 144.092 1.36537 143.714 1.36537H139.346C138.969 1.36537 138.664 1.05938 138.664 0.683146ZM127.744 0.683146C127.744 0.305983 128.05 0 128.426 0H132.795C133.171 0 133.477 0.305983 133.477 0.683146C133.477 1.05938 133.171 1.36537 132.795 1.36537H128.426C128.05 1.36537 127.744 1.05938 127.744 0.683146ZM116.825 0.683146C116.825 0.305983 117.13 0 117.507 0H121.875C122.252 0 122.557 0.305983 122.557 0.683146C122.557 1.05938 122.252 1.36537 121.875 1.36537H117.507C117.13 1.36537 116.825 1.05938 116.825 0.683146ZM105.905 0.683146C105.905 0.305983 106.211 0 106.587 0H110.956C111.332 0 111.638 0.305983 111.638 0.683146C111.638 1.05938 111.332 1.36537 110.956 1.36537H106.587C106.211 1.36537 105.905 1.05938 105.905 0.683146ZM94.9854 0.683146C94.9854 0.305983 95.2905 0 95.6676 0H100.036C100.413 0 100.718 0.305983 100.718 0.683146C100.718 1.05938 100.413 1.36537 100.036 1.36537H95.6676C95.2905 1.36537 94.9854 1.05938 94.9854 0.683146ZM84.0653 0.683146C84.0653 0.305983 84.3712 0 84.7475 0H89.1163C89.4925 0 89.7985 0.305983 89.7985 0.683146C89.7985 1.05938 89.4925 1.36537 89.1163 1.36537H84.7475C84.3712 1.36537 84.0653 1.05938 84.0653 0.683146ZM73.146 0.683146C73.146 0.305983 73.4511 0 73.8282 0H78.1961C78.5733 0 78.8783 0.305983 78.8783 0.683146C78.8783 1.05938 78.5733 1.36537 78.1961 1.36537H73.8282C73.4511 1.36537 73.146 1.05938 73.146 0.683146ZM62.2268 0.683146C62.2268 0.305983 62.5318 0 62.909 0H67.2769C67.6531 0 67.9591 0.305983 67.9591 0.683146C67.9591 1.05938 67.6531 1.36537 67.2769 1.36537H62.909C62.5318 1.36537 62.2268 1.05938 62.2268 0.683146ZM263.769 1.41991C263.357 1.38386 262.938 1.36537 262.521 1.36537H259.463C259.086 1.36537 258.78 1.05938 258.78 0.683146C258.78 0.305983 259.086 0 259.463 0H262.521C262.977 0 263.438 0.0203372 263.889 0.0600873C264.264 0.0933664 264.542 0.424309 264.508 0.800547C264.477 1.15552 264.179 1.42268 263.83 1.42268L263.769 1.41991ZM52.3105 4.63412C52.0656 4.34662 52.1007 3.91584 52.3882 3.67179C53.5557 2.68082 54.8555 1.87195 56.2523 1.26645C56.598 1.1167 57.0001 1.27477 57.1499 1.62051C57.2996 1.96716 57.1415 2.36836 56.7958 2.51904C55.522 3.07092 54.3359 3.80861 53.2719 4.71269C53.1434 4.82177 52.9863 4.87446 52.831 4.87446C52.6368 4.87446 52.4455 4.79312 52.3105 4.63412ZM272.892 5.92738C271.948 4.90127 270.863 4.02215 269.666 3.31497C269.34 3.12269 269.233 2.70485 269.425 2.38038C269.617 2.05591 270.036 1.94775 270.36 2.14003C271.673 2.91562 272.862 3.87886 273.897 5.00388C274.152 5.28121 274.134 5.71384 273.856 5.96805C273.725 6.08915 273.559 6.14831 273.395 6.14831C273.21 6.14831 273.026 6.07436 272.892 5.92738ZM47.6413 14.2398C47.2678 14.1917 47.0034 13.8497 47.0515 13.4762C47.2456 11.9601 47.6635 10.4866 48.2939 9.09536C48.4501 8.7524 48.8541 8.59988 49.198 8.7561C49.541 8.9114 49.6926 9.3163 49.5382 9.65926C48.9632 10.9266 48.5823 12.2689 48.4049 13.6491C48.3614 13.9939 48.0674 14.2453 47.7291 14.2453L47.6413 14.2398ZM276.61 15.3999C276.604 14.0022 276.394 12.622 275.984 11.2983C275.873 10.9377 276.075 10.5559 276.434 10.4441C276.794 10.3332 277.177 10.5347 277.288 10.8952C277.738 12.3475 277.969 13.8617 277.974 15.3944C277.976 15.7706 277.672 16.0775 277.295 16.0794H277.292C276.917 16.0794 276.611 15.7752 276.61 15.3999ZM46.9258 24.4768V20.1089C46.9258 19.7317 47.2308 19.4267 47.608 19.4267C47.9852 19.4267 48.2902 19.7317 48.2902 20.1089V24.4768C48.2902 24.8539 47.9852 25.159 47.608 25.159C47.2308 25.159 46.9258 24.8539 46.9258 24.4768ZM276.61 26.3164V21.9485C276.61 21.5713 276.915 21.2663 277.292 21.2663C277.669 21.2663 277.974 21.5713 277.974 21.9485V26.3164C277.974 26.6935 277.669 26.9986 277.292 26.9986C276.915 26.9986 276.61 26.6935 276.61 26.3164ZM46.9258 35.396V31.0281C46.9258 30.6519 47.2308 30.3459 47.608 30.3459C47.9852 30.3459 48.2902 30.6519 48.2902 31.0281V35.396C48.2902 35.7732 47.9852 36.0792 47.608 36.0792C47.2308 36.0792 46.9258 35.7732 46.9258 35.396ZM276.61 37.2365V32.8687C276.61 32.4915 276.915 32.1855 277.292 32.1855C277.669 32.1855 277.974 32.4915 277.974 32.8687V37.2365C277.974 37.6128 277.669 37.9188 277.292 37.9188C276.915 37.9188 276.61 37.6128 276.61 37.2365ZM46.9258 46.3162V41.9483C46.9258 41.5712 47.2308 41.2661 47.608 41.2661C47.9852 41.2661 48.2902 41.5712 48.2902 41.9483V46.3162C48.2902 46.6934 47.9852 46.9984 47.608 46.9984C47.2308 46.9984 46.9258 46.6934 46.9258 46.3162ZM276.61 48.1558V43.7879C276.61 43.4107 276.915 43.1057 277.292 43.1057C277.669 43.1057 277.974 43.4107 277.974 43.7879V48.1558C277.974 48.533 277.669 48.838 277.292 48.838C276.915 48.838 276.61 48.533 276.61 48.1558ZM46.9258 57.2354V52.8676C46.9258 52.4913 47.2308 52.1853 47.608 52.1853C47.9852 52.1853 48.2902 52.4913 48.2902 52.8676V57.2354C48.2902 57.6126 47.9852 57.9177 47.608 57.9177C47.2308 57.9177 46.9258 57.6126 46.9258 57.2354ZM276.61 59.076V54.7081C276.61 54.3309 276.915 54.0249 277.292 54.0249C277.669 54.0249 277.974 54.3309 277.974 54.7081V59.076C277.974 59.4522 277.669 59.7582 277.292 59.7582C276.915 59.7582 276.61 59.4522 276.61 59.076ZM46.9258 68.1547V63.7877C46.9258 63.4106 47.2308 63.1055 47.608 63.1055C47.9852 63.1055 48.2902 63.4106 48.2902 63.7877V68.1547C48.2902 68.5328 47.9852 68.8378 47.608 68.8378C47.2308 68.8378 46.9258 68.5328 46.9258 68.1547ZM276.61 69.9952V65.6273C276.61 65.2502 276.915 64.9451 277.292 64.9451C277.669 64.9451 277.974 65.2502 277.974 65.6273V69.9952C277.974 70.3724 277.669 70.6774 277.292 70.6774C276.915 70.6774 276.61 70.3724 276.61 69.9952ZM46.9258 79.0749V74.707C46.9258 74.3298 47.2308 74.0248 47.608 74.0248C47.9852 74.0248 48.2902 74.3298 48.2902 74.707V79.0749C48.2902 79.452 47.9852 79.7571 47.608 79.7571C47.2308 79.7571 46.9258 79.452 46.9258 79.0749ZM276.61 80.9154V76.5475C276.61 76.1703 276.915 75.8643 277.292 75.8643C277.669 75.8643 277.974 76.1703 277.974 76.5475V80.9154C277.974 81.2916 277.669 81.5976 277.292 81.5976C276.915 81.5976 276.61 81.2916 276.61 80.9154ZM46.9258 89.9941V85.6262C46.9258 85.25 47.2308 84.944 47.608 84.944C47.9852 84.944 48.2902 85.25 48.2902 85.6262V89.9941C48.2902 90.3713 47.9852 90.6772 47.608 90.6772C47.2308 90.6772 46.9258 90.3713 46.9258 89.9941ZM276.61 91.8346V87.4667C276.61 87.0896 276.915 86.7845 277.292 86.7845C277.669 86.7845 277.974 87.0896 277.974 87.4667V91.8346C277.974 92.2118 277.669 92.5168 277.292 92.5168C276.915 92.5168 276.61 92.2118 276.61 91.8346ZM46.9258 100.914V96.5464C46.9258 96.1692 47.2308 95.8642 47.608 95.8642C47.9852 95.8642 48.2902 96.1692 48.2902 96.5464V100.914C48.2902 101.291 47.9852 101.596 47.608 101.596C47.2308 101.596 46.9258 101.291 46.9258 100.914ZM276.61 102.755V98.3869C276.61 98.0097 276.915 97.7038 277.292 97.7038C277.669 97.7038 277.974 98.0097 277.974 98.3869V102.755C277.974 103.131 277.669 103.437 277.292 103.437C276.915 103.437 276.61 103.131 276.61 102.755ZM46.9258 111.834V107.466C46.9258 107.089 47.2308 106.783 47.608 106.783C47.9852 106.783 48.2902 107.089 48.2902 107.466V111.834C48.2902 112.211 47.9852 112.517 47.608 112.517C47.2308 112.517 46.9258 112.211 46.9258 111.834ZM276.61 113.674V109.306C276.61 108.929 276.915 108.624 277.292 108.624C277.669 108.624 277.974 108.929 277.974 109.306V113.674C277.974 114.051 277.669 114.356 277.292 114.356C276.915 114.356 276.61 114.051 276.61 113.674ZM46.9258 122.754V118.386C46.9258 118.009 47.2308 117.704 47.608 117.704C47.9852 117.704 48.2902 118.009 48.2902 118.386V122.754C48.2902 123.131 47.9852 123.436 47.608 123.436C47.2308 123.436 46.9258 123.131 46.9258 122.754ZM276.61 124.594V120.226C276.61 119.849 276.915 119.543 277.292 119.543C277.669 119.543 277.974 119.849 277.974 120.226V124.594C277.974 124.97 277.669 125.276 277.292 125.276C276.915 125.276 276.61 124.97 276.61 124.594ZM46.9258 133.673V129.305C46.9258 128.929 47.2308 128.623 47.608 128.623C47.9852 128.623 48.2902 128.929 48.2902 129.305V133.673C48.2902 134.05 47.9852 134.356 47.608 134.356C47.2308 134.356 46.9258 134.05 46.9258 133.673ZM276.61 135.513V131.146C276.61 130.768 276.915 130.463 277.292 130.463C277.669 130.463 277.974 130.768 277.974 131.146V135.513C277.974 135.891 277.669 136.196 277.292 136.196C276.915 136.196 276.61 135.891 276.61 135.513ZM46.9258 144.593V140.225C46.9258 139.848 47.2308 139.543 47.608 139.543C47.9852 139.543 48.2902 139.848 48.2902 140.225V144.593C48.2902 144.97 47.9852 145.275 47.608 145.275C47.2308 145.275 46.9258 144.97 46.9258 144.593ZM277.167 147.11C276.792 147.076 276.516 146.743 276.551 146.368C276.589 145.938 276.61 145.5 276.61 145.065V142.066C276.61 141.688 276.915 141.383 277.292 141.383C277.669 141.383 277.974 141.688 277.974 142.066V145.065C277.974 145.542 277.953 146.022 277.91 146.493C277.877 146.847 277.58 147.113 277.231 147.113L277.167 147.11ZM50.6355 155.102C49.6408 153.939 48.8264 152.642 48.2153 151.247C48.0637 150.901 48.2218 150.499 48.5666 150.348C48.9114 150.197 49.3145 150.353 49.4652 150.699C50.0226 151.971 50.7658 153.154 51.6727 154.214C51.9176 154.501 51.8844 154.932 51.5978 155.177C51.4693 155.287 51.3112 155.34 51.155 155.34C50.9627 155.34 50.7704 155.26 50.6355 155.102ZM271.962 156.438C271.708 156.159 271.728 155.728 272.006 155.474C273.037 154.533 273.92 153.452 274.632 152.257C274.825 151.933 275.244 151.828 275.567 152.021C275.891 152.214 275.997 152.633 275.804 152.956C275.024 154.265 274.056 155.452 272.926 156.482C272.796 156.601 272.631 156.66 272.467 156.66C272.282 156.66 272.097 156.586 271.962 156.438ZM60.4593 160.402C58.9442 160.212 57.4688 159.8 56.0748 159.175C55.7309 159.021 55.5774 158.617 55.7318 158.274C55.8862 157.93 56.2902 157.775 56.6331 157.93C57.9033 158.499 59.2464 158.874 60.6285 159.046C61.0019 159.094 61.2672 159.435 61.221 159.808C61.1785 160.154 60.8836 160.406 60.5443 160.406L60.4593 160.402ZM261.838 159.837C261.838 159.461 262.144 159.155 262.521 159.155C263.918 159.155 265.3 158.949 266.624 158.545C266.984 158.435 267.367 158.638 267.476 158.998C267.587 159.36 267.383 159.741 267.023 159.851C265.569 160.294 264.053 160.52 262.521 160.52C262.144 160.52 261.838 160.214 261.838 159.837ZM252.042 159.837C252.042 159.461 252.348 159.155 252.725 159.155H257.093C257.47 159.155 257.776 159.461 257.776 159.837C257.776 160.214 257.47 160.52 257.093 160.52H252.725C252.348 160.52 252.042 160.214 252.042 159.837ZM241.123 159.837C241.123 159.461 241.428 159.155 241.805 159.155H246.172C246.55 159.155 246.856 159.461 246.856 159.837C246.856 160.214 246.55 160.52 246.172 160.52H241.805C241.428 160.52 241.123 160.214 241.123 159.837ZM230.203 159.837C230.203 159.461 230.509 159.155 230.885 159.155H235.253C235.63 159.155 235.936 159.461 235.936 159.837C235.936 160.214 235.63 160.52 235.253 160.52H230.885C230.509 160.52 230.203 160.214 230.203 159.837ZM219.284 159.837C219.284 159.461 219.589 159.155 219.966 159.155H224.334C224.711 159.155 225.016 159.461 225.016 159.837C225.016 160.214 224.711 160.52 224.334 160.52H219.966C219.589 160.52 219.284 160.214 219.284 159.837ZM208.364 159.837C208.364 159.461 208.67 159.155 209.046 159.155H213.414C213.791 159.155 214.097 159.461 214.097 159.837C214.097 160.214 213.791 160.52 213.414 160.52H209.046C208.67 160.52 208.364 160.214 208.364 159.837ZM197.444 159.837C197.444 159.461 197.749 159.155 198.127 159.155H202.494C202.872 159.155 203.177 159.461 203.177 159.837C203.177 160.214 202.872 160.52 202.494 160.52H198.127C197.749 160.52 197.444 160.214 197.444 159.837ZM186.524 159.837C186.524 159.461 186.83 159.155 187.206 159.155H191.574C191.951 159.155 192.257 159.461 192.257 159.837C192.257 160.214 191.951 160.52 191.574 160.52H187.206C186.83 160.52 186.524 160.214 186.524 159.837ZM175.605 159.837C175.605 159.461 175.91 159.155 176.287 159.155H180.655C181.032 159.155 181.337 159.461 181.337 159.837C181.337 160.214 181.032 160.52 180.655 160.52H176.287C175.91 160.52 175.605 160.214 175.605 159.837ZM164.685 159.837C164.685 159.461 164.991 159.155 165.367 159.155H169.735C170.112 159.155 170.418 159.461 170.418 159.837C170.418 160.214 170.112 160.52 169.735 160.52H165.367C164.991 160.52 164.685 160.214 164.685 159.837ZM153.766 159.837C153.766 159.461 154.071 159.155 154.448 159.155H158.816C159.193 159.155 159.498 159.461 159.498 159.837C159.498 160.214 159.193 160.52 158.816 160.52H154.448C154.071 160.52 153.766 160.214 153.766 159.837ZM142.845 159.837C142.845 159.461 143.151 159.155 143.528 159.155H147.896C148.273 159.155 148.579 159.461 148.579 159.837C148.579 160.214 148.273 160.52 147.896 160.52H143.528C143.151 160.52 142.845 160.214 142.845 159.837ZM131.926 159.837C131.926 159.461 132.232 159.155 132.608 159.155H136.976C137.353 159.155 137.658 159.461 137.658 159.837C137.658 160.214 137.353 160.52 136.976 160.52H132.608C132.232 160.52 131.926 160.214 131.926 159.837ZM121.007 159.837C121.007 159.461 121.312 159.155 121.689 159.155H126.057C126.433 159.155 126.739 159.461 126.739 159.837C126.739 160.214 126.433 160.52 126.057 160.52H121.689C121.312 160.52 121.007 160.214 121.007 159.837ZM110.087 159.837C110.087 159.461 110.393 159.155 110.769 159.155H115.137C115.514 159.155 115.82 159.461 115.82 159.837C115.82 160.214 115.514 160.52 115.137 160.52H110.769C110.393 160.52 110.087 160.214 110.087 159.837ZM99.1675 159.837C99.1675 159.461 99.4726 159.155 99.8497 159.155H104.218C104.595 159.155 104.9 159.461 104.9 159.837C104.9 160.214 104.595 160.52 104.218 160.52H99.8497C99.4726 160.52 99.1675 160.214 99.1675 159.837ZM88.2473 159.837C88.2473 159.461 88.5533 159.155 88.9296 159.155H93.2974C93.6746 159.155 93.9806 159.461 93.9806 159.837C93.9806 160.214 93.6746 160.52 93.2974 160.52H88.9296C88.5533 160.52 88.2473 160.214 88.2473 159.837ZM77.3281 159.837C77.3281 159.461 77.6331 159.155 78.0103 159.155H82.3782C82.7554 159.155 83.0604 159.461 83.0604 159.837C83.0604 160.214 82.7554 160.52 82.3782 160.52H78.0103C77.6331 160.52 77.3281 160.214 77.3281 159.837ZM66.4079 159.837C66.4079 159.461 66.7139 159.155 67.0901 159.155H71.458C71.8352 159.155 72.1412 159.461 72.1412 159.837C72.1412 160.214 71.8352 160.52 71.458 160.52H67.0901C66.7139 160.52 66.4079 160.214 66.4079 159.837Z" fill="#E4705F"/>
<path fill-rule="evenodd" clip-rule="evenodd" d="M56.0701 15.4542V145.065C56.0701 148.548 58.8932 151.374 62.3765 151.374H262.521C266.004 151.374 268.83 148.548 268.83 145.065V15.4542C268.83 11.971 266.004 9.14502 262.521 9.14502H62.3765C58.8932 9.14502 56.0701 11.971 56.0701 15.4542Z" fill="#FFFFFE"/>
<path fill-rule="evenodd" clip-rule="evenodd" d="M66.4883 133.207H137.578V30.4976H66.4883V133.207Z" fill="#7BC2E1"/>
<path fill-rule="evenodd" clip-rule="evenodd" d="M70.2266 129.47H133.84V34.2349H70.2266V129.47Z" fill="#C7DFEB"/>
<path fill-rule="evenodd" clip-rule="evenodd" d="M133.84 76.6999L91.3755 34.2349H102.296L133.84 65.7807V76.6999Z" fill="#DEEEF4"/>
<path fill-rule="evenodd" clip-rule="evenodd" d="M133.84 114.509L70.2266 50.8947V36.1594L133.84 99.7724V114.509Z" fill="#DEEEF4"/>
<path fill-rule="evenodd" clip-rule="evenodd" d="M96.3904 129.47H88.5328L70.2266 111.163V103.307L96.3904 129.47Z" fill="#DEEEF4"/>
<path fill-rule="evenodd" clip-rule="evenodd" d="M128.826 129.47H121.212L70.2266 78.4858V70.8713L128.826 129.47Z" fill="#DEEEF4"/>
<path fill-rule="evenodd" clip-rule="evenodd" d="M70.2266 81.6112H133.84V77.1287H70.2266V81.6112Z" fill="#7BC2E1"/>
<path fill-rule="evenodd" clip-rule="evenodd" d="M66.4883 137.287H137.578V133.207H66.4883V137.287Z" fill="#C7DFEB"/>
<path fill-rule="evenodd" clip-rule="evenodd" d="M56.0701 15.4542V21.976H268.83V15.4542C268.83 11.971 266.004 9.14502 262.521 9.14502H62.3765C58.8932 9.14502 56.0701 11.971 56.0701 15.4542Z" fill="#2C3A6A"/>
<path fill-rule="evenodd" clip-rule="evenodd" d="M192.883 145.591H238.743V34.3005H192.883V145.591Z" fill="#C7DFEB"/>
<path fill-rule="evenodd" clip-rule="evenodd" d="M192.883 143.292H238.743V32.0015H192.883V143.292Z" fill="#7BC2E1"/>
<path fill-rule="evenodd" clip-rule="evenodd" d="M196.328 139.848H235.299V35.446H196.328V139.848Z" fill="#C7DFEB"/>
<path fill-rule="evenodd" clip-rule="evenodd" d="M198.05 138.126H233.577V37.167H198.05V138.126Z" fill="#FFFFFE"/>
<path fill-rule="evenodd" clip-rule="evenodd" d="M203.253 131.845H228.537V43.4485H203.253V131.845Z" fill="#C7DFEB"/>
<path fill-rule="evenodd" clip-rule="evenodd" d="M223.164 85.9505C223.164 91.1855 218.921 95.4277 213.686 95.4277C208.452 95.4277 204.208 91.1855 204.208 85.9505C204.208 80.7165 208.452 76.4734 213.686 76.4734C218.921 76.4734 223.164 80.7165 223.164 85.9505Z" fill="#FFFFFE"/>
<path fill-rule="evenodd" clip-rule="evenodd" d="M210.292 87.6468C210.292 87.6468 218.332 75.7227 228.537 74.9055V119.744C228.537 119.744 207.431 96.9113 210.292 87.6468Z" fill="#68B1D6"/>
<path fill-rule="evenodd" clip-rule="evenodd" d="M203.253 84.9134C203.253 84.9134 208.164 83.5351 217.566 94.7317C226.383 105.232 228.537 118.732 228.537 118.732V131.845H203.253V84.9134Z" fill="#7BC2E1"/>
<path fill-rule="evenodd" clip-rule="evenodd" d="M81.2837 16.1072C81.2837 17.5391 82.4457 18.7002 83.8776 18.7002C85.3095 18.7002 86.4706 17.5391 86.4706 16.1072C86.4706 14.6752 85.3095 13.5142 83.8776 13.5142C82.4457 13.5142 81.2837 14.6752 81.2837 16.1072Z" fill="#E4705F"/>
<path fill-rule="evenodd" clip-rule="evenodd" d="M72.8215 16.1072C72.8215 17.5391 73.9826 18.7002 75.4145 18.7002C76.8474 18.7002 78.0085 17.5391 78.0085 16.1072C78.0085 14.6752 76.8474 13.5142 75.4145 13.5142C73.9826 13.5142 72.8215 14.6752 72.8215 16.1072Z" fill="#FFFFFE"/>
<path fill-rule="evenodd" clip-rule="evenodd" d="M64.6321 16.1072C64.6321 17.5391 65.7932 18.7002 67.2251 18.7002C68.657 18.7002 69.819 17.5391 69.819 16.1072C69.819 14.6752 68.657 13.5142 67.2251 13.5142C65.7932 13.5142 64.6321 14.6752 64.6321 16.1072Z" fill="#37488B"/>
<mask id="mask0" mask-type="alpha" maskUnits="userSpaceOnUse" x="56" y="9" width="213" height="143">
<path d="M56.0701 15.4542V145.065C56.0701 148.548 58.8932 151.374 62.3765 151.374H262.521C266.004 151.374 268.83 148.548 268.83 145.065V15.4542C268.83 11.971 266.004 9.14502 262.521 9.14502H62.3765C58.8932 9.14502 56.0701 11.971 56.0701 15.4542Z" fill="white"/>
</mask>
<g mask="url(#mask0)">
<path fill-rule="evenodd" clip-rule="evenodd" d="M77.7116 122.338C77.7116 122.338 51.5265 64.561 77.3391 60.0702C97.0653 56.6378 94.8818 96.4304 77.7116 122.338Z" fill="#375C9A"/>
<path fill-rule="evenodd" clip-rule="evenodd" d="M77.277 159.52H77.2724C77.0348 159.517 76.8444 159.323 76.8462 159.084C77.0533 139.339 78.5028 83.9279 78.5166 83.3714C78.5231 83.1338 78.7182 82.9453 78.9585 82.9516C79.1961 82.9582 79.3838 83.156 79.3773 83.3936C79.3634 83.951 77.9148 139.355 77.7078 159.093C77.705 159.329 77.5127 159.52 77.277 159.52Z" fill="#2C3A6A"/>
<path fill-rule="evenodd" clip-rule="evenodd" d="M71.7407 137.714C71.7407 137.714 32.3327 100.317 46.5392 85.5853C62.2063 69.3396 74.172 111.121 71.7407 137.714Z" fill="#375C9A"/>
<path fill-rule="evenodd" clip-rule="evenodd" d="M75.9534 156.145C75.7306 156.145 75.542 155.974 75.5244 155.748C74.2802 139.913 58.5049 105.227 58.345 104.88C58.2461 104.664 58.3413 104.407 58.5576 104.309C58.7749 104.211 59.03 104.306 59.1289 104.522C59.2879 104.872 75.126 139.693 76.3823 155.68C76.4017 155.918 76.2242 156.125 75.9876 156.144L75.9534 156.145Z" fill="#2C3A6A"/>
<path fill-rule="evenodd" clip-rule="evenodd" d="M83.9017 136.728C83.9017 136.728 125.079 101.288 111.605 85.8839C96.7456 68.8968 82.7637 110.047 83.9017 136.728Z" fill="#375C9A"/>
<path fill-rule="evenodd" clip-rule="evenodd" d="M78.8208 154.932L78.7654 154.929C78.5296 154.898 78.3632 154.684 78.3928 154.447C80.4238 138.541 97.9341 104.528 98.1107 104.186C98.2198 103.976 98.4795 103.893 98.6903 104.001C98.902 104.111 98.9843 104.37 98.8752 104.582C98.6995 104.922 81.2585 138.799 79.247 154.556C79.2192 154.773 79.0344 154.932 78.8208 154.932Z" fill="#2C3A6A"/>
<path fill-rule="evenodd" clip-rule="evenodd" d="M100.279 145.304L98.1812 150.875L97.7948 151.899L96.6605 154.91L96.2759 155.932L91.4107 168.85H64.8318L56.9576 147.944L56.573 146.92L55.9638 145.304C55.546 144.197 56.3641 143.015 57.5483 143.015H98.6951C99.8775 143.015 100.695 144.197 100.279 145.304Z" fill="#00ADCA"/>
<path fill-rule="evenodd" clip-rule="evenodd" d="M99.6701 146.921L99.2846 147.944H56.9573L56.5728 146.921H99.6701Z" fill="#375C9A"/>
<path fill-rule="evenodd" clip-rule="evenodd" d="M98.1809 150.875L97.7945 151.9H58.4475L58.062 150.875H98.1809Z" fill="#375C9A"/>
<path fill-rule="evenodd" clip-rule="evenodd" d="M235.693 103.511C234.863 102.422 235.423 100.113 235.199 98.3202C234.904 95.9565 235.19 92.3198 235.891 90.3102C236.943 87.2947 240.526 78.583 242.965 77.5384C245.402 76.4929 242.894 84.2478 242.411 85.848C241.927 87.4482 242.193 88.7109 242.193 88.7109C242.193 88.7109 249.326 71.3688 251.353 70.7559C253.379 70.1439 250.31 80.4198 249.534 82.9545C249.534 82.9545 255.634 70.1855 257.043 70.2022C259.869 70.2373 253.506 84.612 253.506 84.612C253.506 84.612 259.184 74.131 260.88 75.1136C262.676 76.1545 256.563 87.3659 256.563 87.3659C256.563 87.3659 261.263 81.0734 263.113 81.2536C264.963 81.4348 256.112 95.4065 254.492 97.3903C252.873 99.375 248.95 105.081 246.427 107.282C244.713 108.776 238.318 106.959 235.693 103.511Z" fill="#00ADCA"/>
<path fill-rule="evenodd" clip-rule="evenodd" d="M255.707 91.8834C255.897 91.7049 255.93 91.4082 255.772 91.191C252.09 86.1104 245.906 85.5418 245.644 85.5197C245.355 85.4956 245.101 85.711 245.077 86.0003C245.054 86.2897 245.268 86.543 245.557 86.567C245.616 86.5726 251.528 87.1272 254.921 91.8085C255.092 92.0433 255.42 92.096 255.655 91.9259L255.707 91.8834Z" fill="#0089BF"/>
<path fill-rule="evenodd" clip-rule="evenodd" d="M245.936 100.846C246.087 100.704 246.147 100.478 246.067 100.272C243.804 94.4147 247.285 90.9324 247.321 90.8982C247.529 90.6958 247.533 90.362 247.33 90.155C247.13 89.9488 246.803 89.9424 246.595 90.1374L246.587 90.1448C246.422 90.3047 242.576 94.1531 245.086 100.651C245.19 100.922 245.495 101.057 245.766 100.952L245.936 100.846Z" fill="#0089BF"/>
<path fill-rule="evenodd" clip-rule="evenodd" d="M187.475 106.342L191.5 111.092C192.854 112.697 194.221 114.292 195.595 115.87C198.334 119.035 201.1 122.149 203.89 125.129C205.291 126.611 206.688 128.072 208.101 129.448C209.501 130.838 210.924 132.145 212.299 133.32C212.987 133.904 213.668 134.449 214.316 134.927C214.959 135.406 215.574 135.823 216.075 136.118C216.204 136.199 216.306 136.245 216.422 136.316L216.564 136.388L216.689 136.451L216.79 136.502L216.851 136.527L216.877 136.543L216.778 136.511L216.656 136.477C216.494 136.438 216.324 136.393 216.155 136.369C215.815 136.313 215.48 136.289 215.169 136.302C214.868 136.306 214.596 136.346 214.377 136.391C213.942 136.481 213.707 136.601 213.623 136.649C213.538 136.7 213.583 136.697 213.689 136.635C213.797 136.575 213.97 136.45 214.172 136.292C214.577 135.973 215.088 135.49 215.612 134.924C216.666 133.787 217.793 132.345 218.877 130.805C219.961 129.257 221.042 127.603 222.082 125.888C223.129 124.176 224.151 122.407 225.154 120.608C227.16 117.006 229.091 113.286 230.981 109.522C231.455 108.581 231.924 107.637 232.388 106.69L233.779 103.841L236.495 98.1797L249.774 103.008L249.534 103.857L249.297 104.669L248.815 106.281C248.489 107.351 248.146 108.411 247.802 109.473L247.281 111.062L246.735 112.643C246.368 113.697 245.996 114.749 245.615 115.8C244.087 120.001 242.415 124.169 240.542 128.319C238.652 132.47 236.601 136.598 234.038 140.751C232.742 142.831 231.341 144.921 229.55 147.057C228.652 148.126 227.66 149.211 226.434 150.32C225.819 150.874 225.145 151.429 224.362 151.986C223.579 152.54 222.691 153.097 221.628 153.612C220.567 154.125 219.298 154.603 217.799 154.895C217.047 155.038 216.234 155.129 215.392 155.146C214.54 155.158 213.662 155.097 212.789 154.943C212.355 154.863 211.917 154.771 211.497 154.65L211.181 154.558L210.887 154.467L210.531 154.344C210.297 154.261 210.052 154.175 209.83 154.089L209.182 153.825C208.961 153.735 208.764 153.645 208.566 153.554L207.973 153.278C207.611 153.093 207.225 152.904 206.884 152.715C205.492 151.956 204.293 151.179 203.178 150.394C202.068 149.604 201.046 148.807 200.069 148.005C198.114 146.406 196.357 144.763 194.668 143.113C192.988 141.454 191.389 139.78 189.848 138.079C186.766 134.683 183.897 131.206 181.154 127.657C179.787 125.878 178.454 124.083 177.146 122.268C176.498 121.356 175.854 120.441 175.216 119.518L174.271 118.118L173.799 117.409L173.312 116.661L187.475 106.342Z" fill="#00ADCA"/>
<path fill-rule="evenodd" clip-rule="evenodd" d="M183.424 92.7949C183.424 92.7949 188.1 93.8876 193.473 105.352C198.846 116.817 204.403 123.792 204.403 123.792L191.842 144.859L186.302 137.435C186.302 137.435 164.095 103.465 183.424 92.7949Z" fill="#37488B"/>
<path fill-rule="evenodd" clip-rule="evenodd" d="M148.738 213.363C128.219 190.07 126.68 156.232 128.017 139.764C128.182 137.709 128.221 135.477 128.173 133.141C128.104 129.703 127.853 126.027 127.569 122.328C126.503 108.424 126.093 95.6299 131.926 92.0256C137.159 88.7874 141.032 87.9619 145.306 86.7712C147.956 86.0307 150.72 85.8006 153.455 86.1029L169.378 87.862C169.378 87.862 180.908 89.3503 183.624 91.2029C186.343 93.0554 188.013 101.599 193.081 109.293C198.151 116.988 199.482 124.841 195.239 133.65C191.55 141.315 192.143 138.438 192.08 150.789C192.071 152.722 192.106 154.698 192.174 156.688C192.189 157.139 192.207 157.587 192.226 158.037C192.773 171.207 194.697 184.785 195.021 191.368C195.654 204.246 156.513 222.192 148.738 213.363Z" fill="#375C9A"/>
<path fill-rule="evenodd" clip-rule="evenodd" d="M166.36 102.466C166.225 102.461 166.089 102.454 165.952 102.445C162.005 102.197 158.643 100.784 158.501 100.724C158.217 100.603 158.083 100.274 158.204 99.988C158.326 99.7024 158.656 99.5692 158.941 99.6903C159.07 99.7458 171.962 105.09 175.902 96.2136C176.028 95.9298 176.359 95.8013 176.643 95.9279C176.926 96.0537 177.055 96.3855 176.929 96.6693C175.148 100.679 171.499 102.679 166.36 102.466Z" fill="#37488B"/>
<path fill-rule="evenodd" clip-rule="evenodd" d="M158.042 149.309C157.888 149.303 157.736 149.234 157.631 149.104C157.434 148.865 157.469 148.511 157.71 148.314C164.418 142.816 171.848 140.702 176.898 139.896C182.371 139.024 186.21 139.445 186.371 139.462C186.679 139.498 186.9 139.777 186.866 140.085C186.831 140.392 186.553 140.614 186.244 140.579C186.091 140.562 170.879 138.973 158.421 149.183C158.311 149.273 158.176 149.315 158.042 149.309Z" fill="#37488B"/>
<path fill-rule="evenodd" clip-rule="evenodd" d="M158.631 110.81L160.063 121.942C160.063 121.942 176.849 120.636 187.976 120.775L185.784 110.459C185.784 110.459 169.702 109.654 158.631 110.81Z" fill="#37488B"/>
<path fill-rule="evenodd" clip-rule="evenodd" d="M151.67 214.028C151.864 214.195 152.153 214.213 152.369 214.055C152.618 213.87 152.671 213.519 152.487 213.27C138.88 194.802 134.457 171.067 133.144 154.407C131.719 136.338 133.542 122.482 133.561 122.344C133.601 122.037 133.386 121.754 133.08 121.713C132.772 121.672 132.489 121.886 132.449 122.194C132.429 122.333 130.591 136.308 132.025 154.496C132.868 165.182 134.659 175.217 137.347 184.322C140.712 195.718 145.502 205.681 151.584 213.935L151.67 214.028Z" fill="#37488B"/>
<path fill-rule="evenodd" clip-rule="evenodd" d="M157.255 32.0339C157.255 32.0339 140.941 35.3914 141.687 52.5043C142.431 69.6171 143.852 69.5968 138.951 74.6404C134.499 79.2237 135.029 83.1525 135.029 83.1525C135.029 83.1525 145.624 86.6274 164.172 85.2546C177.222 84.2895 183.234 86.4915 183.234 86.4915C183.234 86.4915 188.287 56.8047 186.273 47.8101C184.261 38.8146 157.255 32.0339 157.255 32.0339Z" fill="#2C3A6A"/>
<path fill-rule="evenodd" clip-rule="evenodd" d="M162.769 75.1931C162.769 75.1931 151.559 75.2319 146.413 64.8987C141.514 55.0602 142.715 49.2391 144.657 43.0427C146.121 38.3771 152.24 31.2767 162.753 31.3858C173.369 31.4948 182.011 35.2739 184.752 43.4578C189.881 58.7726 180.878 80.3837 162.769 75.1931Z" fill="#2C3A6A"/>
<path fill-rule="evenodd" clip-rule="evenodd" d="M181.625 60.0723C181.625 60.0723 184.612 56.6159 186.244 60.1204C187.877 63.6239 186.52 70.669 182.041 69.4681L181.625 60.0723Z" fill="#0089BF"/>
<path fill-rule="evenodd" clip-rule="evenodd" d="M186.751 71.0307C186.321 71.5752 185.827 72.067 185.273 72.4922C183.164 74.1118 180.165 74.7487 176.233 73.4268C176.233 73.4268 170.62 68.1428 175.752 56.3925C175.752 56.3925 181.772 53.721 185.979 56.9426C186.443 57.2948 186.886 57.7219 187.294 58.2331C187.547 58.5427 187.784 58.8876 188.007 59.2619C189.805 62.2913 189.455 67.6418 186.751 71.0307Z" fill="#375C9A"/>
<path fill-rule="evenodd" clip-rule="evenodd" d="M186.751 71.0305C186.321 71.575 185.827 72.0668 185.274 72.492C187.389 65.3953 186.507 59.3644 185.979 56.9424C186.443 57.2946 186.886 57.7217 187.294 58.2329C187.738 60.9969 188.06 65.6116 186.751 71.0305Z" fill="#37488B"/>
<path fill-rule="evenodd" clip-rule="evenodd" d="M173.984 77.8923L174.118 89.515C174.118 89.515 168.154 96.6386 152.989 87.5136C154.499 82.6216 156.771 76.2847 155.651 72.5842C155.651 72.5842 156.76 72.991 158.557 74.0827C158.908 74.2972 159.33 74.434 159.756 74.6189C163.523 76.2459 169.193 78.2139 173.984 77.8923Z" fill="#00ADCA"/>
<path fill-rule="evenodd" clip-rule="evenodd" d="M174.981 88.8697C174.891 88.573 174.578 88.4057 174.281 88.4953C173.985 88.585 173.817 88.8984 173.908 89.1951C173.923 89.2497 175.586 94.7592 176.613 100.815C177.949 108.686 177.641 113.885 175.72 115.851C174.839 116.754 173.602 116.969 171.94 116.508C163.43 114.149 155.578 91.2667 153.827 85.8422C153.747 85.5927 153.505 85.4337 153.244 85.4595L153.233 85.4605C152.879 85.4947 152.646 85.8459 152.754 86.1852C154.296 91.0125 160.41 108.98 167.941 115.463C169.142 116.498 170.378 117.24 171.64 117.59C173.703 118.162 175.346 117.841 176.524 116.635C181.713 111.32 175.258 89.7831 174.981 88.8697Z" fill="#FFFFFE"/>
<path fill-rule="evenodd" clip-rule="evenodd" d="M173.984 77.8925L174.124 82.3963C170.019 81.4377 162.643 79.1174 158.557 74.083C158.929 74.2549 159.33 74.4343 159.757 74.6192C163.523 76.2462 169.193 78.2142 173.984 77.8925Z" fill="#2C3A6A"/>
<path fill-rule="evenodd" clip-rule="evenodd" d="M184.578 60.0918C184.565 61.0874 184.548 62.0266 184.525 62.9103C184.349 69.5569 183.853 73.1954 182.239 74.8335C174.073 83.1061 156.243 72.9449 155.669 72.6167L155.655 72.6066C155.496 71.8569 155.356 71.1127 155.23 70.3778C154.152 64.1491 154.139 58.3733 154.828 52.8942C154.586 47.1046 158.086 41.7513 163.548 39.8239C169.212 37.829 174.242 40.361 177.272 41.3279C181.844 42.7894 184.668 48.7491 184.608 57.1965C184.601 58.2097 184.59 59.1757 184.578 60.0918Z" fill="#00ADCA"/>
<path fill-rule="evenodd" clip-rule="evenodd" d="M176.772 67.6479C177.988 67.6248 179.27 67.256 180.531 66.3186C180.715 66.1809 180.754 65.9202 180.616 65.7362C180.479 65.5523 180.219 65.5144 180.035 65.6503C175.524 69.005 170.597 64.0409 170.547 63.99C170.388 63.8255 170.124 63.8218 169.959 63.9826C169.795 64.1425 169.791 64.406 169.952 64.5706C169.993 64.6122 173.079 67.72 176.772 67.6479Z" fill="#2C3A6A"/>
<path fill-rule="evenodd" clip-rule="evenodd" d="M171.754 49.3804C171.754 49.3804 173.429 49.5634 172.824 51.0942C172.219 52.6251 168.873 50.8964 166.437 53.703C166.437 53.703 165.451 50.0053 171.754 49.3804Z" fill="#2C3A6A"/>
<path fill-rule="evenodd" clip-rule="evenodd" d="M171.091 61.3619C171.083 62.144 169.465 62.7615 167.477 62.7412C165.49 62.7208 163.885 62.07 163.893 61.287C163.902 60.505 165.519 59.8875 167.507 59.9087C169.494 59.9291 171.099 60.5799 171.091 61.3619Z" fill="#0089BF"/>
<path fill-rule="evenodd" clip-rule="evenodd" d="M184.525 62.9104C182.7 62.8244 181.282 62.2032 181.289 61.4683C181.297 60.7269 182.743 60.1352 184.578 60.0918C184.566 61.0874 184.548 62.0266 184.525 62.9104Z" fill="#0090C1"/>
<path fill-rule="evenodd" clip-rule="evenodd" d="M171.654 56.8413C171.642 57.9155 171.146 58.7817 170.544 58.7752C169.944 58.7687 169.465 57.8933 169.477 56.8191C169.488 55.744 169.983 54.8788 170.585 54.8843C171.186 54.8908 171.664 55.7672 171.654 56.8413Z" fill="#2C3A6A"/>
<path fill-rule="evenodd" clip-rule="evenodd" d="M182.283 56.9515C182.272 58.0256 181.775 58.8909 181.175 58.8854C180.574 58.8789 180.095 58.0034 180.106 56.9283C180.117 55.8542 180.614 54.988 181.214 54.9944C181.816 55.0009 182.294 55.8764 182.283 56.9515Z" fill="#2C3A6A"/>
<path fill-rule="evenodd" clip-rule="evenodd" d="M177.591 61.2213C178.105 61.2259 178.455 61.1436 178.484 61.1362C178.605 61.1067 178.707 61.0281 178.766 60.9199C178.826 60.8118 178.837 60.6823 178.798 60.5659L177.211 55.8633C177.132 55.6322 176.882 55.5074 176.65 55.586C176.418 55.6637 176.295 55.9142 176.373 56.1453L177.786 60.3329C177.342 60.3505 176.655 60.2969 175.979 59.9243C175.766 59.8069 175.497 59.8846 175.379 60.0981C175.261 60.3126 175.339 60.5807 175.552 60.699C176.295 61.1085 177.038 61.2148 177.591 61.2213Z" fill="#2C3A6A"/>
<path fill-rule="evenodd" clip-rule="evenodd" d="M159.21 68.2932C159.158 68.4125 157.711 71.6747 155.67 72.6158L155.666 72.6176L155.655 72.6066C155.497 71.8569 155.356 71.1127 155.23 70.3778C155.306 70.3658 157.361 70.0302 159.21 68.2932Z" fill="#2C3A6A"/>
<path fill-rule="evenodd" clip-rule="evenodd" d="M157.319 60.8118C157.319 60.8118 153.082 54.9963 149.888 59.4982C147.256 63.2079 152.059 72.9966 157.227 69.7139L157.319 60.8118Z" fill="#00ADCA"/>
<path fill-rule="evenodd" clip-rule="evenodd" d="M156.658 67.9695L156.706 67.9677C156.949 67.9436 157.127 67.7273 157.103 67.4842C156.617 62.5709 152.505 60.8293 152.33 60.7572C152.104 60.6638 151.846 60.772 151.753 60.9985C151.661 61.2231 151.768 61.4819 151.994 61.5744C152.148 61.6391 155.79 63.1995 156.223 67.5711C156.246 67.7976 156.435 67.9677 156.658 67.9695Z" fill="#2C3A6A"/>
<path fill-rule="evenodd" clip-rule="evenodd" d="M152.56 65.2475C152.659 65.2484 152.757 65.2179 152.84 65.1523C153.228 64.8444 154.402 64.091 155.161 64.2935C155.397 64.3563 155.639 64.2168 155.702 63.981C155.766 63.7444 155.625 63.5022 155.389 63.4393C154.064 63.0862 152.468 64.3184 152.289 64.4599C152.099 64.6115 152.067 64.8907 152.219 65.0811C152.305 65.1892 152.433 65.2466 152.56 65.2475Z" fill="#2C3A6A"/>
<path fill-rule="evenodd" clip-rule="evenodd" d="M154.007 47.1367C154.007 47.1367 159.832 52.5612 162.321 51.2605C164.81 49.9598 160.86 45.0567 160.86 45.0567C160.86 45.0567 169.525 49.8656 172.887 48.38C176.247 46.8954 170.288 42.7669 170.288 42.7669C170.288 42.7669 176.878 48.7526 180.668 48.441C184.458 48.1295 180.721 43.316 180.721 43.316C180.721 43.316 184.114 50.0486 186.405 49.4958C188.695 48.9439 185.727 39.3013 178.188 35.9521C170.648 32.602 151.366 32.9921 154.007 47.1367Z" fill="#2C3A6A"/>
<path fill-rule="evenodd" clip-rule="evenodd" d="M159.122 49.2268C159.122 49.2268 160.931 61.5142 157.839 61.5383C154.747 61.5623 151.685 56.7535 154.007 47.1367L159.122 49.2268Z" fill="#2C3A6A"/>
<path fill-rule="evenodd" clip-rule="evenodd" d="M179.353 49.4592C179.353 49.4592 177.674 49.6081 178.247 51.15C178.82 52.6928 182.202 51.0344 184.579 53.8909C184.579 53.8909 185.641 50.2145 179.353 49.4592Z" fill="#2C3A6A"/>
<path fill-rule="evenodd" clip-rule="evenodd" d="M190.364 57.1827L184.61 57.3241L184.601 58.1228H184.613L190.384 57.9814C190.605 57.9758 190.779 57.7928 190.773 57.5719C190.768 57.3519 190.594 57.1707 190.364 57.1827Z" fill="#FFFFFE"/>
<path fill-rule="evenodd" clip-rule="evenodd" d="M168.783 62.6727L168.683 62.6699C166.951 62.6237 165.403 61.8342 164.345 60.6094C163.432 59.5527 162.885 58.1735 162.9 56.6686C162.904 56.358 162.931 56.0529 162.981 55.7543L162.991 55.697C163.395 53.3952 165.124 51.55 167.354 50.9741C167.848 50.8447 168.369 50.7782 168.905 50.7846C170.058 50.7966 171.132 51.1368 172.04 51.7211C173.709 52.7878 174.81 54.6672 174.789 56.7924C174.755 60.0676 172.062 62.7087 168.783 62.6727ZM175.464 55.4437C175.413 55.1728 175.344 54.9103 175.259 54.6533C174.808 53.2648 173.919 52.0696 172.751 51.2394C171.683 50.4749 170.388 50.0155 168.983 49.9896L168.914 49.9859C165.715 49.9545 163.004 52.1657 162.288 55.1516C162.224 55.4104 162.177 55.672 162.148 55.941C162.119 56.1758 162.105 56.4171 162.101 56.6584C162.083 58.4499 162.767 60.0871 163.895 61.3064C164.28 61.7214 164.717 62.0884 165.192 62.3926C166.227 63.0646 167.455 63.4584 168.774 63.4723C170.996 63.4945 172.978 62.436 174.225 60.7896C175.066 59.6775 175.571 58.2965 175.587 56.7989V56.7804C175.589 56.3237 175.549 55.8763 175.464 55.4437Z" fill="#FFFFFE"/>
<path fill-rule="evenodd" clip-rule="evenodd" d="M190.713 56.9545C190.713 57.0858 190.708 57.2152 190.695 57.3428C190.684 57.5277 190.661 57.7098 190.628 57.89C190.407 59.2083 189.747 60.3795 188.807 61.2512C188.462 61.5729 188.079 61.8503 187.665 62.0851C187.406 62.2293 187.136 62.3559 186.855 62.4604L186.611 62.5445C186.011 62.7414 185.37 62.844 184.706 62.8385L184.525 62.8338L184.414 62.8301C183.429 62.7691 182.508 62.4715 181.711 61.9871C181.592 61.9177 181.477 61.8429 181.365 61.7634C179.813 60.6781 178.803 58.869 178.825 56.8334C178.83 56.3758 178.887 55.9294 178.989 55.5023C179.325 54.1129 180.148 52.9148 181.264 52.0976C181.955 51.5911 182.758 51.2296 183.63 51.0577C183.77 51.0318 183.911 51.0114 184.058 50.992C184.31 50.9615 184.567 50.9467 184.83 50.9495C185.02 50.9532 185.207 50.9615 185.391 50.9819C185.65 51.0087 185.899 51.053 186.147 51.1131C186.343 51.1566 186.538 51.2148 186.726 51.2814C189.067 52.0995 190.741 54.3412 190.713 56.9545ZM186.699 50.4328C186.501 50.3727 186.302 50.3237 186.097 50.2811C185.856 50.2331 185.61 50.1989 185.36 50.1785C185.187 50.1619 185.015 50.1536 184.84 50.1508C184.516 50.1471 184.196 50.1684 183.889 50.209C183.51 50.258 183.142 50.3394 182.786 50.4494C181.797 50.7545 180.906 51.2804 180.167 51.9701C179.354 52.7281 178.728 53.6876 178.373 54.7655C178.277 55.0391 178.204 55.3239 178.148 55.6123L178.141 55.6576C178.069 56.0366 178.03 56.4267 178.027 56.8242C177.998 59.4819 179.522 61.8013 181.75 62.9226C182.473 63.2868 183.272 63.5244 184.118 63.6057C184.245 63.6177 184.375 63.6279 184.504 63.6288L184.699 63.6372C185.364 63.6427 186.008 63.554 186.617 63.3774C186.715 63.3524 186.813 63.3219 186.909 63.2896C187.173 63.1999 187.433 63.0955 187.682 62.9744C188.152 62.7497 188.591 62.4724 188.991 62.1498C190.508 60.9249 191.492 59.0604 191.512 56.9647C191.545 53.8929 189.504 51.273 186.699 50.4328Z" fill="#FFFFFE"/>
<path fill-rule="evenodd" clip-rule="evenodd" d="M154.153 57.9823L154.011 57.9546C153.805 57.8732 153.705 57.6412 153.786 57.4369C155.611 52.8102 162.657 55.2617 162.727 55.2876C162.935 55.3616 163.043 55.5899 162.969 55.797C162.895 56.004 162.667 56.1131 162.459 56.0401C162.395 56.017 156.07 53.8206 154.528 57.7299C154.466 57.888 154.314 57.9841 154.153 57.9823Z" fill="#FFFFFE"/>
<path fill-rule="evenodd" clip-rule="evenodd" d="M178.483 55.7831C178.38 55.7822 178.278 55.7415 178.201 55.662C177.104 54.5277 175.418 55.4632 175.402 55.4725C175.21 55.5806 174.966 55.5141 174.858 55.3218C174.749 55.1305 174.816 54.8864 175.009 54.7782C175.78 54.3419 177.557 53.8483 178.774 55.1064C178.927 55.2654 178.923 55.5178 178.765 55.6712C178.686 55.747 178.584 55.784 178.483 55.7831Z" fill="#FFFFFE"/>
<path fill-rule="evenodd" clip-rule="evenodd" d="M186.406 49.4952C186.494 49.474 186.573 49.4388 186.645 49.3917C186.919 53.755 186.482 57.1753 186.445 57.4684L185.154 57.2936C185.164 57.2243 185.608 53.7291 185.308 49.2983C185.688 49.4971 186.06 49.5794 186.406 49.4952Z" fill="#FFFFFE"/>
<path fill-rule="evenodd" clip-rule="evenodd" d="M111.028 123.436C111.028 123.436 103.824 137.985 102.033 151.374H122.858C122.858 151.374 127.323 137.868 132.887 130.207L111.028 123.436Z" fill="#00ADCA"/>
<path fill-rule="evenodd" clip-rule="evenodd" d="M130.272 93.4763C130.272 93.4763 115.32 103.819 108.1 125.475C108.1 125.475 116.112 135.247 134.257 134.356C134.257 134.356 142.549 121.19 143.697 109.313C144.846 97.4347 130.272 93.4763 130.272 93.4763Z" fill="#375C9A"/>
<path fill-rule="evenodd" clip-rule="evenodd" d="M134.258 134.818C134.126 134.818 133.996 134.763 133.904 134.654C133.739 134.459 133.764 134.168 133.959 134.003C142.151 127.068 143.226 109.464 143.237 109.287C143.25 109.031 143.472 108.84 143.724 108.85C143.979 108.865 144.174 109.083 144.159 109.337C144.118 110.077 143.049 127.52 134.556 134.709C134.469 134.782 134.363 134.818 134.258 134.818Z" fill="#37488B"/>
</g>
<path fill-rule="evenodd" clip-rule="evenodd" d="M115.356 151.757C115.356 151.757 116.372 145.546 119.729 145.859C123.084 146.172 127.289 152.929 128.604 155.4C129.919 157.872 123.641 155.521 121.991 153.101C120.753 151.288 119.345 151.757 119.345 151.757H115.356Z" fill="#00ADCA"/>
<path fill-rule="evenodd" clip-rule="evenodd" d="M126.34 150.195C126.34 150.195 127.454 145.38 130.809 145.692C134.166 146.006 138.37 152.762 139.686 155.234C141 157.706 134.886 155.234 133.071 152.935C131.258 150.637 129.68 150.694 129.68 150.694L126.34 150.195Z" fill="#00ADCA"/>
<path fill-rule="evenodd" clip-rule="evenodd" d="M131.747 149.428C131.747 149.428 132.73 145.174 135.695 145.451C138.66 145.728 142.374 151.696 143.536 153.88C144.697 156.063 139.296 153.88 137.694 151.849C136.091 149.819 134.698 149.869 134.698 149.869L131.747 149.428Z" fill="#00ADCA"/>
<path fill-rule="evenodd" clip-rule="evenodd" d="M120.729 150.521C120.729 150.521 121.842 145.706 125.198 146.02C128.554 146.332 132.759 153.089 134.074 155.56C135.388 158.033 129.274 155.561 127.46 153.262C125.647 150.963 124.068 151.022 124.068 151.022L120.729 150.521Z" fill="#00ADCA"/>
<path fill-rule="evenodd" clip-rule="evenodd" d="M299.52 9.90494V30.5352C299.52 33.2613 297.307 35.4744 294.58 35.4744H257.123L245.813 39.5317C244.652 39.9495 243.541 38.8069 243.987 37.6588L248.264 26.6111V9.90494C248.264 7.1779 250.476 4.96484 253.206 4.96484H294.58C297.307 4.96484 299.52 7.1779 299.52 9.90494Z" fill="#1E8ABF"/>
<path fill-rule="evenodd" clip-rule="evenodd" d="M266.978 20.8068C266.978 22.7804 265.379 24.3806 263.405 24.3806C261.432 24.3806 259.832 22.7804 259.832 20.8068C259.832 18.8331 261.432 17.2339 263.405 17.2339C265.379 17.2339 266.978 18.8331 266.978 20.8068Z" fill="#375C9A"/>
<path fill-rule="evenodd" clip-rule="evenodd" d="M278.29 20.8068C278.29 22.7804 276.69 24.3806 274.716 24.3806C272.743 24.3806 271.144 22.7804 271.144 20.8068C271.144 18.8331 272.743 17.2339 274.716 17.2339C276.69 17.2339 278.29 18.8331 278.29 20.8068Z" fill="#375C9A"/>
<path fill-rule="evenodd" clip-rule="evenodd" d="M289.601 20.8068C289.601 22.7804 288.001 24.3806 286.028 24.3806C284.054 24.3806 282.454 22.7804 282.454 20.8068C282.454 18.8331 284.054 17.2339 286.028 17.2339C288.001 17.2339 289.601 18.8331 289.601 20.8068Z" fill="#375C9A"/>
<path fill-rule="evenodd" clip-rule="evenodd" d="M285.522 372.609C285.522 375.839 335.744 378.458 397.698 378.458C459.65 378.458 509.873 375.839 509.873 372.609C509.873 369.378 459.65 366.759 397.698 366.759C335.744 366.759 285.522 369.378 285.522 372.609Z" fill="black" fill-opacity="0.08"/>
<path fill-rule="evenodd" clip-rule="evenodd" d="M358.379 338.309V372.609H344.146L333 332.65L358.379 338.309Z" fill="#DF7A54"/>
<path fill-rule="evenodd" clip-rule="evenodd" d="M358.379 347.062C351.925 346.345 342.721 344.713 336.012 343.451L333 332.65L358.379 338.309V347.062Z" fill="#CB5C3F"/>
<path fill-rule="evenodd" clip-rule="evenodd" d="M438.551 338.309V372.609H452.784L463.93 332.65L438.551 338.309Z" fill="#DF7A54"/>
<path fill-rule="evenodd" clip-rule="evenodd" d="M438.551 347.062V338.309L463.93 332.65L460.918 343.451C454.209 344.713 445.005 346.345 438.551 347.062Z" fill="#CB5C3F"/>
<path fill-rule="evenodd" clip-rule="evenodd" d="M504.477 135.99C503.099 150.464 490.946 203.166 484.828 229.142C484.218 231.733 483.669 234.057 483.193 236.052C482.04 240.919 481.341 243.818 481.341 243.818L350.376 241.069C350.376 241.069 350.009 239.392 349.376 236.426C344.693 214.502 325.371 122.051 330.475 113.044C330.834 112.41 331.364 111.784 332.051 111.171C332.539 110.733 333.1 110.305 333.741 109.88C334.377 109.457 335.088 109.038 335.871 108.627C345.349 103.621 365.113 99.4546 387.557 96.9947C414.025 94.0865 444.216 93.5586 465.643 96.8311C466.255 96.9244 466.861 97.0224 467.457 97.1222C469.017 97.3792 470.516 97.6473 471.953 97.9182C500.043 103.238 505.481 110.884 505.656 121.713V121.721C505.721 125.973 504.98 130.709 504.477 135.99Z" fill="#EB9462"/>
<path fill-rule="evenodd" clip-rule="evenodd" d="M351.2 213.03C350.931 213.03 350.691 212.837 350.642 212.562C350.6 212.334 346.448 189.521 343.099 166.326C341.131 152.696 339.821 141.603 339.205 133.352C338.147 119.194 339.347 116.37 340.342 115.477C346.094 110.316 375.855 106.361 393.085 104.461C401.338 103.552 409.744 103.265 418.07 103.609C437.989 104.431 472.273 106.61 478.081 111.968C479.063 112.875 480.222 115.715 478.968 129.859C478.238 138.099 476.772 149.173 474.614 162.774C470.941 185.919 466.472 208.673 466.427 208.9C466.365 209.209 466.066 209.41 465.758 209.35C465.45 209.288 465.25 208.989 465.311 208.681C465.355 208.454 469.823 185.717 473.491 162.593C479.912 122.133 478.64 114.033 477.309 112.805C473.262 109.071 451.654 106.133 418.023 104.745C409.755 104.404 401.406 104.689 393.21 105.593C376.115 107.477 346.616 111.376 341.102 116.324C339.755 117.533 338.369 125.615 344.224 166.161C347.57 189.334 351.72 212.131 351.761 212.358C351.817 212.667 351.613 212.964 351.304 213.019L351.2 213.03Z" fill="#DF7A54"/>
<path fill-rule="evenodd" clip-rule="evenodd" d="M505.656 121.713V121.722C505.6 125.686 504.939 130.064 504.478 134.898C503.099 149.37 490.947 202.075 484.829 228.05H463.427C463.427 228.05 487.027 141.978 488.415 120.809C489.321 106.989 479.139 100.652 471.953 97.9189C500.043 103.239 505.482 110.884 505.656 121.713Z" fill="#DF7A54"/>
<path fill-rule="evenodd" clip-rule="evenodd" d="M348.385 236.685C348.385 236.685 330.38 236.53 328.731 243.817C327.445 249.501 327.039 298.611 327.86 320.733C328.075 326.533 323.606 331.435 317.81 331.762C316.529 331.834 315.179 331.898 313.79 331.948C307.12 332.186 299.553 332.091 294.367 330.921C283.071 328.369 282.707 312.34 278.699 285.741C274.692 259.145 271.048 211.781 295.822 202.67C296.674 202.357 297.53 202.073 298.38 201.815C322.253 194.599 345.009 208.865 345.009 208.865C350.511 224.088 348.385 236.685 348.385 236.685Z" fill="#DF7A54"/>
<path fill-rule="evenodd" clip-rule="evenodd" d="M313.79 331.948C307.12 332.186 299.553 332.091 294.367 330.921C283.071 328.369 282.707 312.34 278.699 285.741C274.692 259.145 271.048 211.781 295.822 202.671C296.674 202.357 297.53 202.073 298.38 201.815C302.602 202.824 306.481 205.624 308.574 211.781C314.251 228.473 305.24 286.477 313.79 331.948Z" fill="#EB9462"/>
<path fill-rule="evenodd" clip-rule="evenodd" d="M300.598 327.958C295.451 327.958 291.45 325.835 289.004 321.793C285.178 315.473 279.658 261.24 279.425 258.934C279.396 258.652 279.602 258.398 279.885 258.37C280.166 258.342 280.419 258.547 280.448 258.83C280.505 259.393 286.178 315.136 289.885 321.261C295.506 330.549 307.913 325.596 308.037 325.545C308.3 325.438 308.6 325.564 308.709 325.826C308.817 326.089 308.691 326.389 308.428 326.497C308.293 326.553 305.076 327.854 301.069 327.954C300.911 327.956 300.753 327.958 300.598 327.958Z" fill="#DF7A54"/>
<path fill-rule="evenodd" clip-rule="evenodd" d="M302.442 221.17C302.442 221.17 302.038 212.068 295.167 212.788C288.298 213.51 287.968 228.528 294.11 230.468C303.095 233.309 302.442 221.17 302.442 221.17Z" fill="#DF7A54"/>
<path fill-rule="evenodd" clip-rule="evenodd" d="M286.625 218.451L286.513 218.44C286.236 218.378 286.061 218.103 286.122 217.827C286.197 217.487 288.037 209.509 294.686 207.92C297.38 207.276 299.772 207.759 301.796 209.357C304.725 211.668 306.089 215.843 306.089 217.938C306.089 218.221 305.858 218.451 305.575 218.451C305.29 218.451 305.06 218.221 305.06 217.938C305.06 216.3 303.915 212.339 301.16 210.165C299.395 208.773 297.296 208.354 294.924 208.921C288.896 210.361 287.144 217.973 287.127 218.049C287.073 218.29 286.861 218.451 286.625 218.451Z" fill="#DF7A54"/>
<path fill-rule="evenodd" clip-rule="evenodd" d="M490.518 235.184C489.235 240.594 488.457 243.817 488.457 243.817L342.86 240.76C342.86 240.76 342.453 238.9 341.752 235.598C367.555 231.212 456.1 232.695 490.518 235.184Z" fill="#DF7A54"/>
<path fill-rule="evenodd" clip-rule="evenodd" d="M489.358 262.686C489.321 265.43 489.261 268.337 489.171 271.352C488.36 298.488 485.039 334.263 473.27 337.397C454.109 342.507 335.214 345.104 329.003 333.745C327.148 330.355 325.993 324.646 325.242 317.663C325.094 316.294 324.963 314.877 324.846 313.418C323.825 300.777 323.814 285.049 323.392 271.352C323.276 267.671 323.134 264.133 322.933 260.846C321.458 236.699 341.11 236.357 341.11 236.357C368.897 235.706 409.715 237.008 441.463 238.348C458.017 239.048 472.105 239.755 480.595 240.203C486.056 240.49 489.2 240.672 489.2 240.672C489.2 240.672 489.527 249.911 489.358 262.686Z" fill="#EB9462"/>
<path fill-rule="evenodd" clip-rule="evenodd" d="M396.244 318.017C393.847 318.017 391.376 317.993 388.825 317.94C350.452 317.16 328.366 308.522 328.148 308.434C327.823 308.306 327.665 307.938 327.794 307.614C327.923 307.289 328.291 307.13 328.616 307.26C328.832 307.346 350.73 315.9 388.851 316.677C427.021 317.451 447.984 312.021 448.192 311.968C448.53 311.877 448.875 312.079 448.965 312.416C449.056 312.753 448.854 313.1 448.517 313.19C448.322 313.241 429.887 318.017 396.244 318.017Z" fill="#DF7A54"/>
<path fill-rule="evenodd" clip-rule="evenodd" d="M489.357 262.686C489.32 265.43 489.261 268.337 489.171 271.352C488.36 298.489 485.039 334.263 473.27 337.397C454.108 342.507 335.214 345.104 329.003 333.745C327.148 330.355 325.993 324.646 325.242 317.663C325.094 316.294 324.963 314.877 324.846 313.418C330.484 317.178 347.412 322.11 359.043 323.304C407.534 328.276 461.104 323.252 461.104 323.252C454.736 297 443.175 246.602 447.642 233.335C464.198 234.035 472.105 239.755 480.595 240.203L489.357 262.686Z" fill="#DF7A54"/>
<path fill-rule="evenodd" clip-rule="evenodd" d="M348.023 233.526C349.585 234.935 351.353 236.268 353.301 237.52L353.485 237.636C354.848 238.508 356.298 239.334 357.82 240.114C358.365 240.393 358.92 240.665 359.477 240.93C363.916 243.034 368.927 244.766 374.296 246.015C374.784 246.133 375.276 246.242 375.771 246.343C377.2 246.651 378.65 246.925 380.119 247.157C380.612 247.242 381.107 247.313 381.602 247.384C387.284 248.196 393.232 248.475 399.211 248.111C399.915 248.07 400.62 248.019 401.324 247.955C403.201 247.8 405.076 247.572 406.951 247.278L407.085 247.258C407.65 247.168 408.214 247.073 408.778 246.971C411.81 246.423 414.821 245.693 417.782 244.771C420.366 243.969 422.908 243.016 425.393 241.899C425.817 241.714 426.235 241.517 426.654 241.323C427.178 241.073 427.697 240.82 428.212 240.557L428.359 240.486C431.3 231.987 434.164 201.783 434.913 192.757C435.067 190.958 435.178 189.162 435.27 187.365C435.464 183.299 435.504 179.226 435.436 175.101C435.427 174.56 435.418 174.024 435.399 173.479C435.394 173.18 435.388 172.876 435.379 172.572C435.272 168.739 435.077 164.86 434.825 160.903C434.795 160.409 434.762 159.915 434.732 159.418C434.567 157.017 434.388 154.588 434.196 152.129C433.788 146.907 433.325 141.53 432.875 135.928C432.145 126.915 430.103 119.844 426.817 115.09C425.989 113.893 425.083 112.845 424.101 111.946C421.919 109.957 419.359 108.723 416.429 108.31C414.628 108.058 412.984 107.712 411.49 107.312C411.21 107.241 410.943 107.165 410.675 107.086C409.831 106.843 409.036 106.578 408.292 106.308C407.433 105.994 406.642 105.667 405.922 105.341C405.807 105.292 405.692 105.24 405.582 105.191C405.39 105.097 405.198 105.012 405.015 104.918C401.93 103.414 400.179 102.043 400.179 102.043L379.054 102.416C378.894 102.66 378.728 102.896 378.564 103.123L378.527 103.17C377.112 105.066 375.429 106.43 373.619 107.467C373.276 107.668 372.925 107.851 372.577 108.027C372.309 108.166 372.033 108.294 371.757 108.421C371.472 108.549 371.181 108.673 370.893 108.791C370.205 109.074 369.513 109.327 368.816 109.568L368.791 109.572C363.702 111.296 358.512 112.09 355.725 115.919C355.301 116.506 354.931 117.158 354.628 117.895C354.325 118.634 354.085 119.454 353.921 120.374C353.824 120.886 353.778 121.449 353.769 122.061C353.667 128.26 357.436 139.808 357.405 161.358C357.403 162.702 357.385 164.079 357.351 165.494C357.342 165.917 357.333 166.344 357.319 166.77C357.297 167.645 357.262 168.532 357.223 169.437V169.441C357.179 170.346 357.137 171.267 357.082 172.202C356.985 173.943 356.861 175.745 356.708 177.589C356.581 179.209 356.428 180.872 356.248 182.577C356.067 184.321 355.867 186.111 355.637 187.947C354.723 195.255 352.645 209.762 350.399 221.957C350.048 223.878 349.688 225.737 349.331 227.504C349.292 227.692 349.258 227.874 349.218 228.056C348.818 230.023 348.42 231.863 348.023 233.526Z" fill="#157663"/>
<path fill-rule="evenodd" clip-rule="evenodd" d="M383.219 142.147L364.286 141.025C364.286 141.025 359.228 165.884 371.047 166.903C384.746 168.085 383.219 142.147 383.219 142.147Z" fill="#1E3A34"/>
<path fill-rule="evenodd" clip-rule="evenodd" d="M387.563 121.945C392.035 121.865 396.11 119.014 399.451 113.584C402.304 108.95 403.613 104.128 403.668 103.924C403.781 103.503 403.531 103.069 403.109 102.956C402.687 102.843 402.253 103.093 402.141 103.515C402.091 103.703 396.986 122.233 385.647 120.21C382.685 119.681 380.48 118.32 379.091 116.166C376.055 111.453 377.793 104.443 377.811 104.373C377.919 103.95 377.663 103.519 377.24 103.412C376.818 103.303 376.386 103.559 376.278 103.982C376.199 104.297 374.357 111.737 377.763 117.021C379.397 119.561 381.958 121.156 385.37 121.766C386.109 121.899 386.841 121.958 387.563 121.945Z" fill="#FFFFFE"/>
<path fill-rule="evenodd" clip-rule="evenodd" d="M386.124 135.243C389.701 135.179 393.518 134.141 397.473 132.156C404.276 128.741 409.22 123.618 409.27 123.566C409.451 123.376 409.456 123.061 409.281 122.863C409.105 122.665 408.815 122.658 408.633 122.849C408.585 122.899 403.735 127.92 397.066 131.263C388.203 135.705 380.5 135.233 374.171 129.861C373.972 129.692 373.683 129.73 373.529 129.946C373.374 130.163 373.41 130.475 373.608 130.645C377.257 133.741 381.414 135.289 385.966 135.245L386.124 135.243Z" fill="#1E3A34"/>
<path fill-rule="evenodd" clip-rule="evenodd" d="M386.223 126.457C391.2 126.369 396.913 121.984 397.228 121.74C397.433 121.58 397.481 121.271 397.333 121.046C397.185 120.823 396.9 120.772 396.694 120.931C396.599 121.005 387.05 128.329 382.472 124.194C382.278 124.018 381.989 124.046 381.827 124.258C381.666 124.468 381.693 124.783 381.887 124.958C383.125 126.076 384.637 126.485 386.223 126.457Z" fill="#1E3A34"/>
<path fill-rule="evenodd" clip-rule="evenodd" d="M386.087 198.79C387.954 198.757 389.858 198.554 391.792 198.184C396.56 197.267 401.524 195.326 406.547 192.412C415.085 187.462 420.928 181.32 420.985 181.259C421.166 181.067 421.17 180.753 420.992 180.556C420.816 180.359 420.525 180.355 420.345 180.547C420.288 180.607 414.522 186.663 406.093 191.547C398.353 196.031 386.713 200.419 375.21 195.849C374.973 195.755 374.71 195.887 374.624 196.146C374.537 196.403 374.66 196.689 374.898 196.783C378.436 198.189 382.182 198.858 386.087 198.79Z" fill="#1E3A34"/>
<path fill-rule="evenodd" clip-rule="evenodd" d="M378.505 178.115C380.331 178.506 382.231 178.739 384.198 178.816C389.05 179.006 394.325 178.239 399.877 176.541C409.315 173.653 416.398 168.996 416.469 168.95C416.688 168.804 416.762 168.498 416.634 168.266C416.508 168.034 416.226 167.964 416.007 168.109C415.936 168.156 408.949 172.748 399.632 175.595C391.078 178.208 378.746 179.843 368.577 172.786C368.368 172.64 368.082 172.709 367.94 172.941C367.796 173.173 367.852 173.479 368.062 173.625C371.189 175.795 374.686 177.297 378.505 178.115Z" fill="#1E3A34"/>
<path fill-rule="evenodd" clip-rule="evenodd" d="M401.431 82.2808C401.431 82.2808 401.975 89.14 404.463 91.3918C404.463 91.3918 400.345 96.1628 396.123 94.9453C396.123 94.9453 398.226 84.0723 401.431 82.2808Z" fill="#1E2A2C"/>
<path fill-rule="evenodd" clip-rule="evenodd" d="M362.505 65.3508C362.603 65.9813 362.741 66.6274 362.923 67.2829L362.924 67.2856C363.456 69.1872 364.363 71.1876 365.732 73.2768L366.282 73.2407L366.829 73.2047L368.735 73.0817C368.735 73.0817 373.865 56.5864 382.142 57.5385C390.419 58.4935 394.674 75.9558 394.674 75.9558L404.63 74.1984C404.63 74.1984 409.32 61.9776 403.634 53.2834C398.899 46.0425 390.512 48.397 390.512 48.397C390.512 48.397 381.795 43.1352 373.393 47.3246C367.955 50.0332 361.143 56.4718 362.505 65.3508Z" fill="#1E2A2C"/>
<path fill-rule="evenodd" clip-rule="evenodd" d="M378.447 98.5468L378.541 103.937C379.181 104.438 379.826 104.869 380.473 105.242C389.939 110.702 399.918 103.559 399.918 103.559L399.587 84.8589L380.966 96.9124L378.447 98.5468Z" fill="#EEA293"/>
<path fill-rule="evenodd" clip-rule="evenodd" d="M378.447 98.5468L378.527 103.128C390.024 100.88 394.046 93.4763 394.046 93.4763L380.966 96.9124L378.447 98.5468Z" fill="#1E2A2C"/>
<path fill-rule="evenodd" clip-rule="evenodd" d="M371.287 75.0276C371.287 75.0276 368.16 71.4631 366.492 75.1118C364.824 78.7623 366.287 86.0634 370.926 84.7821L371.287 75.0276Z" fill="#E57165"/>
<path fill-rule="evenodd" clip-rule="evenodd" d="M384.679 135.526L385.001 134.918C373.489 128.833 369.726 114.545 368.597 103.63C367.367 91.7579 368.902 81.2047 368.917 81.0993L368.235 80.9985C368.22 81.1039 366.673 91.7431 367.91 103.701C368.638 110.737 370.175 116.851 372.474 121.873C375.361 128.178 379.467 132.772 384.679 135.526Z" fill="#FFFFFE"/>
<path fill-rule="evenodd" clip-rule="evenodd" d="M368.246 87.7764C368.246 87.7764 368.427 98.9267 380.025 98.6956C391.551 98.4701 399.245 89.2795 399.646 88.8524L399.658 88.8413L400.418 67.8135C400.418 67.8135 401.684 56.0808 390.519 54.1432C382.364 52.727 374.766 54.2116 370.994 58.5203C370.872 58.659 370.754 58.8014 370.644 58.9474C369.458 60.4598 368.721 62.291 368.552 64.4385L368.246 87.7764Z" fill="#EEA293"/>
<path fill-rule="evenodd" clip-rule="evenodd" d="M367 73.1935L370.567 72.7831C370.567 72.7831 369.656 64.186 374.281 59.697C377.253 56.8128 383.605 57.507 387.766 58.3714C387.993 58.4204 388.215 58.4666 388.433 58.5156C389.479 58.7504 390.346 58.9824 390.926 59.1488C391.172 59.2209 391.366 59.2782 391.501 59.3171C391.644 59.3624 391.718 59.3873 391.718 59.3873C391.718 59.3873 389.565 64.1019 393.149 67.5564C396.188 70.4859 392.413 77.9145 392.413 77.9145L397.704 77.8212C400.339 76.4299 401.228 70.8298 401.228 70.8298C401.228 70.8298 403.84 63.2135 400.295 57.1558C398.369 53.8639 392.49 51.7988 386.353 51.209C385.991 51.1757 385.628 51.1461 385.265 51.1212C380.465 50.7995 375.636 51.3865 372.533 52.9987C370.07 54.279 368.638 56.9866 367.824 60.0141C367.599 60.8405 367.424 61.6891 367.284 62.5405C366.418 67.8374 367 73.1935 367 73.1935Z" fill="#1E2A2C"/>
<path fill-rule="evenodd" clip-rule="evenodd" d="M389.609 66.9695C389.043 68.284 387.53 68.9043 386.206 68.3626C385.432 68.0455 384.522 67.7376 383.565 67.5463C382.206 67.2764 381.347 65.9313 381.689 64.5891C381.689 64.5891 387.081 63.9984 389.609 66.9695Z" fill="#1E2A2C"/>
<path fill-rule="evenodd" clip-rule="evenodd" d="M368.635 67.3411C369.247 68.6344 370.78 69.2011 372.084 68.6122C372.845 68.2692 373.745 67.9281 374.695 67.7035C376.043 67.3855 376.854 66.0109 376.465 64.6816C376.465 64.6816 371.056 64.2831 368.635 67.3411Z" fill="#1E2A2C"/>
<path fill-rule="evenodd" clip-rule="evenodd" d="M383.551 77.289C383.565 78.1015 385.249 78.7292 387.312 78.6932C389.374 78.6562 391.035 77.9693 391.02 77.1568C391.006 76.3451 389.323 75.7165 387.26 75.7535C385.198 75.7896 383.537 76.4773 383.551 77.289Z" fill="#E57165"/>
<path fill-rule="evenodd" clip-rule="evenodd" d="M368.36 78.9859C368.649 79.0099 368.951 79.0182 369.261 79.0127C371.322 78.9766 372.982 78.2879 372.969 77.4763C372.954 76.6647 371.27 76.0351 369.21 76.0721C368.93 76.0767 368.659 76.0943 368.398 76.1229L368.36 78.9859Z" fill="#E57165"/>
<path fill-rule="evenodd" clip-rule="evenodd" d="M383.503 74.0331C383.522 75.1479 384.043 76.0437 384.666 76.0326C385.291 76.0215 385.78 75.1082 385.761 73.9933C385.741 72.8785 385.219 71.9836 384.595 71.9947C383.971 72.0058 383.482 72.9182 383.503 74.0331Z" fill="#1E2A2C"/>
<path fill-rule="evenodd" clip-rule="evenodd" d="M372.296 74.2316C372.317 75.3464 372.838 76.2422 373.462 76.2302C374.086 76.22 374.576 75.3067 374.557 74.1918C374.536 73.077 374.015 72.1821 373.391 72.1932C372.767 72.2043 372.277 73.1167 372.296 74.2316Z" fill="#1E2A2C"/>
<path fill-rule="evenodd" clip-rule="evenodd" d="M376.581 83.9697C380.655 83.8976 383.931 80.3432 383.975 80.2951C384.145 80.1075 384.13 79.8181 383.942 79.648C383.755 79.4779 383.465 79.4918 383.294 79.6795C383.081 79.9152 378.002 85.4072 372.9 81.9008C372.691 81.7576 372.406 81.8102 372.262 82.0192C372.118 82.2281 372.172 82.5137 372.38 82.657C373.809 83.6387 375.239 83.9928 376.581 83.9697Z" fill="#1E2A2C"/>
<path fill-rule="evenodd" clip-rule="evenodd" d="M395.936 84.3931C395.99 84.516 397.518 87.8938 399.646 88.8534L399.658 88.8414L399.742 86.4961C399.742 86.4961 397.906 86.216 395.936 84.3931Z" fill="#1E2A2C"/>
<path fill-rule="evenodd" clip-rule="evenodd" d="M397.84 76.6119C397.84 76.6119 402.192 70.5449 405.541 75.1929C408.303 79.0228 403.392 89.2191 398.004 85.8515L397.84 76.6119Z" fill="#EEA293"/>
<path fill-rule="evenodd" clip-rule="evenodd" d="M398.581 84.037C398.813 84.0333 399.009 83.8558 399.03 83.6201C399.446 79.0793 403.214 77.432 403.375 77.3636C403.608 77.2647 403.717 76.9957 403.618 76.7627C403.52 76.5298 403.252 76.4198 403.019 76.5178C402.838 76.5936 398.582 78.4341 398.116 83.5369C398.093 83.7892 398.279 84.012 398.531 84.0351L398.581 84.037Z" fill="#1E2A2C"/>
<path fill-rule="evenodd" clip-rule="evenodd" d="M402.812 81.1807C402.946 81.178 403.078 81.1179 403.166 81.0042C403.323 80.8054 403.288 80.5179 403.089 80.3608C402.903 80.2147 401.234 78.9492 399.864 79.3254C399.619 79.3929 399.475 79.6453 399.543 79.8893C399.609 80.1334 399.863 80.2776 400.107 80.2101C400.895 79.9938 402.117 80.7666 402.523 81.0827C402.609 81.1502 402.712 81.1826 402.812 81.1807Z" fill="#1E2A2C"/>
<path fill-rule="evenodd" clip-rule="evenodd" d="M378.334 78.5265C378.586 78.5219 378.789 78.313 378.784 78.0597C378.779 77.8064 378.57 77.6049 378.317 77.6086C376.63 77.6391 375.825 76.7609 375.557 76.381C377.319 72.577 379.071 68.7434 379.088 68.7037C379.194 68.4735 379.092 68.2017 378.861 68.0963C378.631 67.9909 378.359 68.0926 378.253 68.3228C378.235 68.3625 376.418 72.344 374.62 76.2183C374.563 76.3431 374.564 76.4882 374.625 76.6121C374.664 76.6925 375.614 78.5755 378.334 78.5265Z" fill="#1E2A2C"/>
<path fill-rule="evenodd" clip-rule="evenodd" d="M339.873 218.49C355.655 217.238 362.296 194.62 368.719 172.747C373.779 155.519 378.558 139.246 387.37 133.71C392.068 130.759 395.745 126.105 398.299 119.88C400.333 114.922 401.663 108.959 402.252 102.157C403.252 90.5956 401.741 80.4631 401.725 80.3623L401.044 80.4658C401.06 80.5657 402.559 90.6289 401.564 102.111C400.649 112.662 397.38 126.608 387.004 133.126C377.97 138.801 373.155 155.196 368.059 172.553C361.701 194.202 355.127 216.589 339.818 217.803L339.873 218.49Z" fill="#FFFFFE"/>
<path fill-rule="evenodd" clip-rule="evenodd" d="M400.02 79.8561C399.959 80.6031 400.516 81.2576 401.263 81.3186C402.011 81.3787 402.665 80.8222 402.725 80.0743C402.786 79.3274 402.229 78.672 401.482 78.6119C400.734 78.5518 400.08 79.1083 400.02 79.8561Z" fill="#FFFFFE"/>
<path fill-rule="evenodd" clip-rule="evenodd" d="M385.002 78.9074C384.883 78.9074 384.764 78.9056 384.644 78.9019C381.125 78.8085 378.309 77.3507 378.354 75.647C378.396 74.1198 380.721 72.9135 383.736 72.7471C383.582 73.0983 383.493 73.5467 383.502 74.0329C383.522 75.1413 384.036 76.0325 384.655 76.0325C384.659 76.0325 384.662 76.0325 384.666 76.0325C385.291 76.0214 385.78 75.108 385.76 73.9932C385.752 73.531 385.658 73.1067 385.505 72.7683C388.692 73.0216 391.141 74.3972 391.098 75.9872C391.092 76.2562 391.013 76.515 390.873 76.76C390.435 76.1702 389.065 75.7514 387.43 75.7514C387.374 75.7514 387.317 75.7524 387.26 75.7533C385.198 75.7893 383.537 76.4771 383.551 77.2887C383.564 78.0782 385.156 78.6939 387.14 78.6939C387.197 78.6939 387.253 78.6939 387.311 78.6929C386.599 78.8316 385.821 78.9074 385.002 78.9074Z" fill="#F6CABC"/>
<path fill-rule="evenodd" clip-rule="evenodd" d="M387.14 78.6939C385.156 78.6939 383.564 78.0782 383.551 77.2888C383.537 76.4771 385.198 75.7894 387.26 75.7533C387.317 75.7524 387.374 75.7515 387.43 75.7515C389.066 75.7515 390.436 76.1702 390.874 76.76C390.365 77.6493 389.039 78.3565 387.311 78.693C387.254 78.6939 387.197 78.6939 387.14 78.6939Z" fill="#F1B0A5"/>
<path fill-rule="evenodd" clip-rule="evenodd" d="M384.655 76.0325C384.036 76.0325 383.522 75.1414 383.502 74.033C383.493 73.5468 383.582 73.0984 383.736 72.7471C383.971 72.7342 384.21 72.7268 384.452 72.7268C384.571 72.7268 384.69 72.7287 384.809 72.7324C385.044 72.7379 385.277 72.7508 385.505 72.7684C385.658 73.1067 385.752 73.531 385.76 73.9933C385.78 75.1081 385.291 76.0214 384.666 76.0325C384.662 76.0325 384.659 76.0325 384.655 76.0325Z" fill="#7E908D"/>
<path fill-rule="evenodd" clip-rule="evenodd" d="M365.827 78.4489C363.584 77.9137 362.034 76.7831 362.069 75.5157C362.1 74.3426 363.478 73.3591 365.483 72.8904C365.565 73.0189 365.647 73.1474 365.732 73.2768L366.282 73.2407L366.829 73.2047L367 73.1936H367.006L368.438 73.1002L368.433 73.4691C367.737 73.4977 367.037 73.9202 366.492 75.1118C366.063 76.0519 365.841 77.2333 365.827 78.4489Z" fill="#FAEEE4"/>
<path fill-rule="evenodd" clip-rule="evenodd" d="M365.732 73.2766C365.647 73.1471 365.565 73.0187 365.483 72.8902C365.943 72.782 366.435 72.7025 366.951 72.6526C366.979 72.9937 366.999 73.1851 367 73.1934L366.829 73.2045L366.282 73.2405L365.732 73.2766ZM367.006 73.1934L368.439 73.0279L368.438 73.1L367.006 73.1934Z" fill="#7E908D"/>
<path fill-rule="evenodd" clip-rule="evenodd" d="M368.363 78.7705C368.361 78.7705 368.359 78.7705 368.358 78.7705C367.456 78.7465 366.601 78.6328 365.827 78.4488C365.841 77.2332 366.063 76.0518 366.492 75.1117C367.037 73.9201 367.737 73.4977 368.433 73.469L368.399 76.1221C368.398 76.1221 368.398 76.1221 368.398 76.123L368.363 78.7705Z" fill="#F1B0A5"/>
<path fill-rule="evenodd" clip-rule="evenodd" d="M372.643 78.0919C372.856 77.9024 372.972 77.6935 372.969 77.4762C372.955 76.6868 371.362 76.0702 369.381 76.0702C369.324 76.0702 369.267 76.0711 369.21 76.072C368.93 76.0767 368.66 76.0942 368.399 76.122L368.439 73.0279L370.45 72.7959C371.163 72.9253 371.82 73.113 372.395 73.3459C372.327 73.614 372.291 73.9144 372.297 74.2315C372.317 75.3399 372.832 76.2301 373.451 76.2301C373.455 76.2301 373.459 76.2301 373.462 76.2301C373.956 76.2218 374.365 75.6496 374.505 74.8592C374.703 75.1596 374.81 75.4767 374.813 75.804C374.749 75.9417 374.684 76.0794 374.621 76.2181C374.567 76.3337 374.564 76.4658 374.612 76.5832C374.289 77.1869 373.59 77.7092 372.643 78.0919Z" fill="#F6CABC"/>
<path fill-rule="evenodd" clip-rule="evenodd" d="M367.001 73.1933C367 73.185 366.979 72.9936 366.952 72.6525C367.344 72.6156 367.75 72.5952 368.166 72.5952C368.284 72.5952 368.403 72.5971 368.523 72.6008C369.196 72.6183 369.843 72.6858 370.45 72.7958L368.439 73.0278L367.006 73.1933H367.001Z" fill="#7E908D"/>
<path fill-rule="evenodd" clip-rule="evenodd" d="M368.716 78.7761C368.6 78.7761 368.481 78.7742 368.363 78.7705L368.398 76.123C368.398 76.1221 368.398 76.1221 368.399 76.1221C368.66 76.0943 368.93 76.0768 369.21 76.0722C369.267 76.0712 369.324 76.0703 369.381 76.0703C371.362 76.0703 372.955 76.6869 372.968 77.4764C372.972 77.6936 372.856 77.9025 372.643 78.092C371.585 78.5209 370.217 78.7761 368.716 78.7761Z" fill="#F1B0A5"/>
<path fill-rule="evenodd" clip-rule="evenodd" d="M373.451 76.2304C372.832 76.2304 372.317 75.3402 372.296 74.2318C372.291 73.9147 372.327 73.6143 372.395 73.3462C373.372 73.7409 374.115 74.266 374.505 74.8595C374.365 75.6498 373.956 76.2221 373.462 76.2304C373.458 76.2304 373.455 76.2304 373.451 76.2304Z" fill="#7E908D"/>
<path fill-rule="evenodd" clip-rule="evenodd" d="M374.612 76.5835C374.564 76.4661 374.567 76.3339 374.621 76.2183C374.684 76.0797 374.749 75.9419 374.813 75.8042C374.813 75.8208 374.813 75.8384 374.812 75.856C374.805 76.1083 374.736 76.3524 374.612 76.5835Z" fill="#7E908D"/>
<path fill-rule="evenodd" clip-rule="evenodd" d="M374.779 75.8441C374.866 75.8404 374.953 75.808 375.021 75.7433C376.319 74.5305 378.12 75.6185 378.196 75.6657C378.372 75.7729 378.601 75.7193 378.709 75.5446C378.817 75.3698 378.764 75.1406 378.59 75.0324C377.781 74.5286 375.887 73.9148 374.512 75.1997C374.362 75.3393 374.354 75.576 374.495 75.7257C374.57 75.808 374.676 75.8478 374.779 75.8441Z" fill="#374749"/>
<path fill-rule="evenodd" clip-rule="evenodd" d="M399.649 74.7227C399.99 74.5027 400.185 74.2808 400.547 74.0922C395.842 73.2122 391.155 75.1507 390.905 75.2625C390.717 75.3467 390.633 75.5667 390.717 75.7543C390.801 75.942 391.022 76.0261 391.209 75.9429C391.264 75.9179 395.451 74.2817 399.649 74.7227Z" fill="#374749"/>
<path fill-rule="evenodd" clip-rule="evenodd" d="M410.089 279.005C410.089 279.005 411.629 279.763 414.117 281.041C414.825 281.404 415.611 281.809 416.459 282.251C417.583 282.837 418.818 283.487 420.131 284.189C420.881 284.588 421.657 285.006 422.453 285.437C432.358 290.802 445.339 298.379 449.979 303.537C450.303 303.899 450.618 304.256 450.917 304.609C457.898 312.787 458.262 318.267 460.138 317.701C462.097 317.112 463.678 312.889 461.758 309.286C460.429 306.789 459.916 303.547 458.262 299.734C457.813 298.703 457.283 297.631 456.63 296.519C453.746 291.611 448.526 285.916 445.842 281.908C445.67 281.65 445.508 281.398 445.356 281.154C443.202 277.665 443.607 271.837 438.777 268.682C436.416 267.141 433.224 266.593 430.01 266.546C429.438 266.538 428.865 266.546 428.3 266.567C427.45 266.598 426.612 266.659 425.798 266.737C424.673 266.85 423.595 266.999 422.602 267.165C421.652 267.321 420.779 267.491 420.022 267.653C418.197 268.042 417.04 268.387 417.04 268.387L410.089 279.005Z" fill="#FFFFFE"/>
<path fill-rule="evenodd" clip-rule="evenodd" d="M430.01 266.546C431.996 271.52 437.021 281.369 445.842 281.908C445.67 281.65 445.508 281.398 445.356 281.154C443.202 277.665 443.607 271.837 438.777 268.682C436.416 267.141 433.224 266.593 430.01 266.546Z" fill="#374749"/>
<path fill-rule="evenodd" clip-rule="evenodd" d="M450.917 304.609C457.898 312.787 458.262 318.267 460.139 317.7C462.097 317.112 463.678 312.889 461.758 309.285C460.429 306.789 459.917 303.547 458.262 299.733C455.713 300.648 452.855 302.156 450.917 304.609Z" fill="#374749"/>
<path fill-rule="evenodd" clip-rule="evenodd" d="M414.117 281.041C414.825 281.404 415.611 281.809 416.459 282.251C418.822 279.83 420.58 276.565 421.643 272.576C422.179 270.56 422.458 268.671 422.602 267.165C421.652 267.321 420.779 267.491 420.022 267.653C419.873 268.913 419.622 270.393 419.206 271.948C418.366 275.09 416.848 278.533 414.117 281.041Z" fill="#374749"/>
<path fill-rule="evenodd" clip-rule="evenodd" d="M420.131 284.189C420.881 284.588 421.657 285.006 422.453 285.437C425.281 282.648 427.157 278.711 427.943 273.849C428.428 270.851 428.395 268.176 428.3 266.566C427.45 266.598 426.612 266.659 425.798 266.737C425.991 270.191 425.872 279.153 420.131 284.189Z" fill="#374749"/>
<path fill-rule="evenodd" clip-rule="evenodd" d="M417.487 263.488C417.246 280.326 406.727 280.733 406.727 280.733C406.727 280.733 404.579 280.55 399.694 278.926C399.236 278.773 398.756 278.61 398.25 278.431C395.086 277.315 390.961 275.664 385.758 273.227C385.144 272.938 384.51 272.638 383.863 272.324C380.457 270.682 376.623 268.72 372.334 266.377C365.852 262.836 358.33 258.431 349.674 252.938C324.728 237.117 303.217 215.855 295.755 198.859C290.712 187.393 292.078 177.866 303.113 173.271C305.057 172.465 307.074 172.047 309.112 171.936C322.777 171.196 335.678 184.968 335.678 184.968C362.063 205.116 369.667 221.376 380.149 234.708C380.581 235.261 381.02 235.809 381.464 236.35C381.751 236.698 382.045 237.043 382.35 237.392C384.055 239.354 386.026 241.304 388.143 243.202C395.197 249.534 403.884 255.316 409.969 259.072C410.398 259.337 410.814 259.592 411.216 259.837C414.988 262.129 417.487 263.488 417.487 263.488Z" fill="#1E2A2C"/>
<path fill-rule="evenodd" clip-rule="evenodd" d="M411.216 259.837C410.889 261.029 410.464 262.217 409.973 263.389C409.786 263.83 409.592 264.268 409.389 264.702C406.369 271.17 401.538 276.872 399.693 278.926C399.236 278.773 398.756 278.61 398.25 278.431C399.581 276.973 405.009 270.807 408.192 263.927C408.395 263.49 408.589 263.052 408.772 262.61C409.257 261.436 409.666 260.25 409.968 259.072C410.398 259.338 410.814 259.592 411.216 259.837Z" fill="#374749"/>
<path fill-rule="evenodd" clip-rule="evenodd" d="M295.753 198.86C308.61 188.907 309.692 177.868 309.112 171.938C307.074 172.048 305.058 172.464 303.114 173.273C292.078 177.864 290.713 187.39 295.753 198.86Z" fill="#374749"/>
<path fill-rule="evenodd" clip-rule="evenodd" d="M409.973 263.389C409.786 263.83 409.592 264.267 409.389 264.702C408.999 264.451 408.598 264.195 408.192 263.927C398.499 257.576 384.214 246.095 368.206 231.708C353.2 218.224 336.167 201.49 334.236 196.617C333.192 193.986 333.229 192.04 334.344 190.838C336.015 189.037 339.478 189.622 341.028 190.001C341.428 190.098 341.664 190.512 341.541 190.903C341.446 191.206 341.169 191.405 340.864 191.405L340.698 191.383C339.172 191.016 336.449 190.653 335.384 191.804C334.497 192.761 334.989 194.665 335.555 196.093C337.116 200.025 351.245 214.558 369.153 230.653C381.811 242.025 397.692 255.302 408.772 262.61C409.179 262.878 409.581 263.139 409.973 263.389Z" fill="#374749"/>
<path fill-rule="evenodd" clip-rule="evenodd" d="M414.42 260.526C411.375 268.694 407.402 275.836 401.272 280.591C401.272 280.591 404.658 284.477 408.87 283.244C412.087 282.302 420.643 270.434 420.198 262.926C418.125 261.071 416.18 260.139 414.42 260.526Z" fill="#374749"/>
<path fill-rule="evenodd" clip-rule="evenodd" d="M352.493 277.191C352.493 277.191 350.879 277.773 348.263 278.768C347.519 279.051 346.694 279.365 345.803 279.71C344.62 280.168 343.322 280.677 341.938 281.229C341.148 281.542 340.331 281.871 339.491 282.21C329.052 286.442 315.31 292.532 310.126 297.142C309.763 297.466 309.411 297.786 309.074 298.103C301.229 305.457 300.258 310.862 298.457 310.091C296.575 309.288 295.474 304.915 297.781 301.547C299.379 299.215 300.249 296.05 302.317 292.443C302.876 291.469 303.522 290.461 304.294 289.428C307.706 284.872 313.526 279.792 316.639 276.107C316.839 275.87 317.028 275.637 317.206 275.411C319.734 272.182 319.979 266.346 325.129 263.746C327.646 262.478 330.88 262.287 334.079 262.598C334.649 262.653 335.216 262.725 335.777 262.808C336.618 262.934 337.443 263.087 338.244 263.255C339.349 263.493 340.404 263.761 341.371 264.035C342.298 264.295 343.147 264.561 343.881 264.806C345.652 265.396 346.764 265.867 346.764 265.867L352.493 277.191Z" fill="#FFFFFE"/>
<path fill-rule="evenodd" clip-rule="evenodd" d="M334.079 262.598C331.552 267.321 325.465 276.551 316.639 276.107C316.838 275.87 317.028 275.637 317.205 275.411C319.734 272.182 319.979 266.346 325.129 263.746C327.646 262.478 330.879 262.287 334.079 262.598Z" fill="#374749"/>
<path fill-rule="evenodd" clip-rule="evenodd" d="M309.074 298.103C301.229 305.457 300.258 310.862 298.457 310.091C296.575 309.288 295.474 304.915 297.781 301.547C299.379 299.215 300.249 296.05 302.317 292.443C304.748 293.635 307.421 295.452 309.074 298.103Z" fill="#374749"/>
<path fill-rule="evenodd" clip-rule="evenodd" d="M348.263 278.768C347.519 279.05 346.693 279.365 345.802 279.71C343.722 277.042 342.338 273.602 341.724 269.52C341.415 267.456 341.347 265.547 341.371 264.034C342.298 264.295 343.146 264.561 343.88 264.806C343.89 266.076 343.976 267.574 344.216 269.166C344.702 272.381 345.828 275.972 348.263 278.768Z" fill="#374749"/>
<path fill-rule="evenodd" clip-rule="evenodd" d="M338.243 263.255C337.443 263.087 336.617 262.934 335.777 262.808C335.503 264.398 335.173 267.052 335.321 270.086C335.564 275.003 336.99 279.125 339.49 282.21C340.331 281.871 341.148 281.542 341.937 281.229C336.791 275.587 337.668 266.667 338.243 263.255Z" fill="#374749"/>
<path fill-rule="evenodd" clip-rule="evenodd" d="M474.942 212.035C465.016 227.713 441.035 244.291 415.398 256.8C390.956 268.727 375.609 274.378 366.744 277.047C366.447 277.137 366.158 277.223 365.878 277.304C359.248 279.249 356.568 279.422 356.568 279.422C356.568 279.422 346.159 277.851 347.788 261.089C347.788 261.089 350.859 258.686 355.452 255.094C355.849 254.785 356.256 254.466 356.674 254.138C365.41 247.306 378.657 236.948 387.334 230.172C411.649 211.189 413.9 212.285 436.313 193.653C436.313 193.653 450.419 181.108 463.375 181.885C466.188 182.053 468.937 182.734 471.471 184.133C482.457 190.214 482.23 200.524 474.942 212.035Z" fill="#1E2A2C"/>
<path fill-rule="evenodd" clip-rule="evenodd" d="M366.743 277.047L366.641 277.17C366.54 277.265 366.419 277.325 366.292 277.35C366.153 277.378 366.01 277.361 365.878 277.304L365.65 277.145C360.743 271.993 357.804 263.721 356.38 258.723C356.236 258.219 356.108 257.749 355.994 257.32C355.74 256.354 355.562 255.586 355.451 255.094C355.849 254.785 356.256 254.466 356.673 254.138L356.695 254.214C356.701 254.249 356.891 255.168 357.276 256.643C357.388 257.068 357.515 257.542 357.66 258.053C359.034 262.898 361.924 271.201 366.665 276.179C366.896 276.418 366.918 276.779 366.743 277.047Z" fill="#374749"/>
<path fill-rule="evenodd" clip-rule="evenodd" d="M463.375 181.886C463.414 187.495 464.353 206.179 474.942 212.035C482.231 200.524 482.457 190.214 471.471 184.133C468.938 182.733 466.187 182.054 463.375 181.886Z" fill="#374749"/>
<path fill-rule="evenodd" clip-rule="evenodd" d="M436.46 200.498C434 205.125 415.215 219.865 398.804 231.6C382.484 243.271 367.933 252.598 357.66 258.052C357.227 258.284 356.799 258.507 356.381 258.723C356.237 258.219 356.108 257.749 355.994 257.319C356.415 257.1 356.843 256.874 357.277 256.643C368.971 250.384 384.981 239.738 397.98 230.445C417.565 216.438 433.22 203.563 435.208 199.831C435.929 198.474 436.627 196.634 435.855 195.587C434.921 194.326 432.176 194.38 430.618 194.577L430.53 194.582C430.195 194.582 429.902 194.343 429.837 194.009C429.758 193.605 430.036 193.22 430.445 193.167C432.028 192.961 435.534 192.765 436.995 194.741C437.972 196.061 437.792 197.998 436.46 200.498Z" fill="#374749"/>
<path fill-rule="evenodd" clip-rule="evenodd" d="M351.164 258.487C353.283 266.943 356.438 274.481 362.002 279.888C362.002 279.888 358.206 283.374 354.157 281.681C351.064 280.387 343.88 267.642 345.156 260.23C347.421 258.617 349.458 257.906 351.164 258.487Z" fill="#374749"/>
<path fill-rule="evenodd" clip-rule="evenodd" d="M446.403 130.845C446.403 130.845 473.922 174.328 468.586 186.867C464.964 195.376 456.6 195.033 447.668 182.01C435.099 163.68 426.347 143.534 426.347 143.534L446.403 130.845Z" fill="#EEA293"/>
<path fill-rule="evenodd" clip-rule="evenodd" d="M412.972 204.765C420.725 199.548 430.254 193.413 434.026 190.085C443.329 181.873 459.654 168.72 468.093 175.313C468.093 175.313 475.025 189.02 463.47 197.974C452.461 206.504 427.849 215.901 416.377 219.465C415.087 214.597 413.608 209.745 412.972 204.765Z" fill="#EEA293"/>
<path fill-rule="evenodd" clip-rule="evenodd" d="M446.477 180.785C446.6 180.779 446.723 180.735 446.825 180.648C451.15 176.953 457.263 174.681 457.324 174.659C457.621 174.549 457.774 174.219 457.665 173.922C457.556 173.623 457.226 173.471 456.927 173.581C456.67 173.675 450.56 175.947 446.079 179.775C445.838 179.981 445.809 180.344 446.015 180.585C446.134 180.725 446.307 180.792 446.477 180.785Z" fill="#E57165"/>
<path fill-rule="evenodd" clip-rule="evenodd" d="M447.42 180.021C447.689 180.009 447.92 179.81 447.962 179.533C448.347 176.971 451.574 174.495 451.606 174.47C451.859 174.279 451.909 173.919 451.717 173.666C451.526 173.414 451.165 173.365 450.912 173.556C450.764 173.669 447.28 176.344 446.827 179.362C446.78 179.676 446.996 179.969 447.309 180.015L447.42 180.021Z" fill="#E57165"/>
<path fill-rule="evenodd" clip-rule="evenodd" d="M421.687 110.151C421.687 110.151 440.728 113.623 459.006 149.26C459.006 149.26 446.82 158.22 431.786 160.45C431.786 160.45 418.007 146.925 414.355 135.094C410.701 123.261 414.685 114.566 421.687 110.151Z" fill="#157663"/>
<path fill-rule="evenodd" clip-rule="evenodd" d="M431.166 160.288C431.062 160.288 430.956 160.251 430.869 160.179C421.358 152.183 415.884 140.091 415.829 139.97C415.725 139.737 415.829 139.463 416.062 139.359C416.295 139.254 416.569 139.359 416.673 139.593C416.727 139.712 422.119 151.615 431.464 159.471C431.659 159.635 431.685 159.926 431.52 160.122C431.429 160.23 431.298 160.288 431.166 160.288Z" fill="#1E3A34"/>
<path fill-rule="evenodd" clip-rule="evenodd" d="M420.274 147.481L420.196 147.475C416.792 146.896 413.713 144.585 413.585 144.486C413.381 144.331 413.342 144.042 413.496 143.839C413.65 143.635 413.94 143.596 414.143 143.749C414.173 143.772 417.174 146.024 420.351 146.563C420.602 146.606 420.772 146.845 420.729 147.096C420.691 147.322 420.495 147.481 420.274 147.481Z" fill="#1E3A34"/>
<path fill-rule="evenodd" clip-rule="evenodd" d="M420.046 234.189L425.071 224.629C426.324 222.246 424.577 219.388 421.884 219.416L342.88 220.269L345.211 232.507L420.046 234.189Z" fill="#B74645"/>
<path fill-rule="evenodd" clip-rule="evenodd" d="M346.803 232.901H417.506C419.212 232.901 420.443 231.518 420.254 229.812L415.435 186.13C415.245 184.424 413.71 183.041 412.004 183.041H341.301C339.595 183.041 338.364 184.424 338.553 186.13L343.372 229.812C343.562 231.518 345.097 232.901 346.803 232.901Z" fill="#E4705F"/>
<path fill-rule="evenodd" clip-rule="evenodd" d="M418.331 233.381L418.406 233.376C418.734 233.334 418.965 233.037 418.924 232.71L413.055 185.921C413.014 185.594 412.717 185.363 412.39 185.403C412.062 185.444 411.831 185.743 411.872 186.07L417.741 232.857C417.779 233.161 418.035 233.381 418.331 233.381Z" fill="#B74645"/>
<path fill-rule="evenodd" clip-rule="evenodd" d="M383.935 207.343C384.205 210.853 381.62 213.875 378.162 214.097C374.704 214.317 371.681 211.651 371.411 208.142C371.141 204.634 373.726 201.611 377.184 201.389C380.642 201.169 383.664 203.835 383.935 207.343Z" fill="#B74645"/>
<path fill-rule="evenodd" clip-rule="evenodd" d="M346.234 235.301H417.912C419.488 235.301 420.702 233.911 420.488 232.35L419.807 227.354H342.88L343.658 233.052C343.834 234.341 344.935 235.301 346.234 235.301Z" fill="#B74645"/>
<path fill-rule="evenodd" clip-rule="evenodd" d="M526.598 235.543C526.598 235.543 527.344 231.126 526.809 224.363C525.955 213.557 518.526 204.343 508.13 201.271C499.539 198.733 488.197 197.165 476.593 200.673C475.742 200.93 474.887 201.215 474.035 201.528C449.261 210.636 452.905 258.003 456.912 284.598C460.92 311.198 461.285 327.226 472.58 329.777C477.766 330.949 485.332 331.042 492.003 330.805C493.392 330.755 494.742 330.69 496.022 330.618C496.022 330.618 510.065 331.841 517.267 325.667C524.47 319.493 526.598 235.543 526.598 235.543Z" fill="#DF7A54"/>
<path fill-rule="evenodd" clip-rule="evenodd" d="M492.003 330.805C485.332 331.042 477.766 330.949 472.58 329.777C461.285 327.226 460.92 311.197 456.912 284.598C452.905 258.003 449.261 210.636 474.035 201.528C474.887 201.215 475.742 200.93 476.593 200.673C480.814 201.681 484.694 204.481 486.787 210.636C492.464 227.329 483.453 285.334 492.003 330.805Z" fill="#EB9462"/>
<path fill-rule="evenodd" clip-rule="evenodd" d="M478.019 326.39C472.871 326.39 468.871 324.265 466.425 320.225C462.599 313.904 457.078 259.67 456.845 257.365C456.817 257.083 457.023 256.83 457.305 256.802C457.593 256.774 457.841 256.979 457.869 257.261C457.925 257.823 463.598 313.569 467.306 319.692C469.651 323.568 473.403 325.472 478.436 325.357C482.258 325.268 485.426 323.989 485.459 323.977C485.723 323.869 486.021 323.995 486.129 324.257C486.237 324.521 486.112 324.821 485.848 324.929C485.713 324.984 482.497 326.286 478.49 326.385C478.333 326.388 478.175 326.39 478.019 326.39Z" fill="#DF7A54"/>
<path fill-rule="evenodd" clip-rule="evenodd" d="M482.996 216.503C482.711 216.503 482.481 216.273 482.481 215.989C482.481 214.352 481.337 210.391 478.581 208.216C476.816 206.824 474.717 206.405 472.345 206.972C466.329 208.41 464.565 216.024 464.547 216.1C464.486 216.378 464.21 216.554 463.933 216.491C463.657 216.43 463.481 216.156 463.544 215.878C463.618 215.539 465.458 207.56 472.106 205.971C474.8 205.327 477.193 205.811 479.218 207.408C482.146 209.719 483.51 213.895 483.51 215.989C483.51 216.273 483.279 216.503 482.996 216.503Z" fill="#DF7A54"/>
<path fill-rule="evenodd" clip-rule="evenodd" d="M480.299 219.686C480.299 219.686 479.894 210.585 473.025 211.305C466.155 212.026 465.824 227.043 471.967 228.984C480.953 231.824 480.299 219.686 480.299 219.686Z" fill="#DF7A54"/>
<path fill-rule="evenodd" clip-rule="evenodd" d="M218.352 372.118C218.352 374.392 203.504 376.236 185.189 376.236C166.873 376.236 152.025 374.392 152.025 372.118C152.025 369.845 166.873 368.002 185.189 368.002C203.504 368.002 218.352 369.845 218.352 372.118Z" fill="black" fill-opacity="0.08"/>
<path fill-rule="evenodd" clip-rule="evenodd" d="M190.772 300.203C190.061 300.203 189.48 299.635 189.466 298.921C189.217 285.326 200.115 279.436 200.579 279.191C201.217 278.856 202.007 279.102 202.343 279.74C202.678 280.378 202.434 281.167 201.797 281.503C201.772 281.516 199.253 282.873 196.81 285.702C193.579 289.442 191.987 293.874 192.079 298.874C192.092 299.595 191.518 300.191 190.796 300.203H190.772Z" fill="#157663"/>
<path fill-rule="evenodd" clip-rule="evenodd" d="M186.557 266.444C186.557 266.444 171.386 237.83 225.812 217.769C228.618 216.734 231.457 219.215 230.785 222.131C227.352 237.027 216.086 271.857 186.557 266.444Z" fill="#1E3A34"/>
<path fill-rule="evenodd" clip-rule="evenodd" d="M171.628 297.615L171.439 297.602C170.725 297.497 170.23 296.835 170.334 296.121C174.103 270.09 193.5 257.983 195.701 256.689C196.319 256.319 197.13 256.518 197.499 257.138C197.868 257.758 197.673 258.554 197.053 258.924L197.026 258.94C196.108 259.481 191.267 262.471 186.065 268.312C178.883 276.375 174.46 285.857 172.919 296.495C172.825 297.145 172.266 297.615 171.628 297.615Z" fill="#1E3A34"/>
<path fill-rule="evenodd" clip-rule="evenodd" d="M179.622 297.615L179.56 297.613C178.839 297.579 178.282 296.967 178.316 296.247C178.842 285.108 171.772 274.946 171.701 274.845C171.285 274.256 171.425 273.44 172.015 273.024C172.605 272.608 173.42 272.75 173.836 273.339C174.148 273.782 181.493 284.344 180.926 296.37C180.893 297.07 180.315 297.615 179.622 297.615Z" fill="#1E3A34"/>
<path fill-rule="evenodd" clip-rule="evenodd" d="M183.376 299.526H183.341C182.62 299.506 182.051 298.906 182.069 298.184L183.182 255.817C183.201 255.096 183.798 254.528 184.522 254.545C185.244 254.565 185.813 255.164 185.794 255.887L184.681 298.254C184.663 298.963 184.082 299.526 183.376 299.526Z" fill="#157663"/>
<path fill-rule="evenodd" clip-rule="evenodd" d="M174.288 275.569C174.288 275.569 143.423 285.379 133.415 228.244C132.899 225.298 135.847 222.948 138.596 224.13C152.638 230.171 184.892 247.483 174.288 275.569Z" fill="#1E3A34"/>
<path fill-rule="evenodd" clip-rule="evenodd" d="M194.284 286.565C194.284 286.565 222.03 303.271 245.024 250.018C246.21 247.271 243.887 244.302 240.94 244.814C225.878 247.432 190.487 256.785 194.284 286.565Z" fill="#157663"/>
<path fill-rule="evenodd" clip-rule="evenodd" d="M189.196 270.472C187.048 274.916 180.563 274.428 179.088 269.716C172.507 248.7 161.479 204.154 184.313 199.042C209.933 193.306 201.348 245.334 189.196 270.472Z" fill="#157663"/>
<path fill-rule="evenodd" clip-rule="evenodd" d="M183.933 273.323L183.903 273.322C183.51 273.306 183.203 272.975 183.22 272.581L185.632 213.024C185.647 212.631 185.983 212.324 186.372 212.341C186.766 212.357 187.072 212.689 187.055 213.081L184.643 272.639C184.629 273.023 184.313 273.323 183.933 273.323Z" fill="#1E3A34"/>
<path fill-rule="evenodd" clip-rule="evenodd" d="M195.048 286.653C194.842 286.653 194.638 286.564 194.496 286.392C194.247 286.087 194.292 285.637 194.596 285.389L227.578 258.397C227.884 258.148 228.332 258.194 228.581 258.498C228.83 258.802 228.786 259.252 228.481 259.501L195.499 286.492C195.367 286.6 195.207 286.653 195.048 286.653Z" fill="#1E3A34"/>
<path fill-rule="evenodd" clip-rule="evenodd" d="M218.847 294.818L217.005 303.248L216.476 305.675L216.407 305.999L215.356 310.805L215.136 311.816L214.826 313.232L214.535 314.568L201.975 371.933H168.307L165.827 360.609L165.293 358.182L164.17 353.051L155.74 314.568L155.449 313.232L155.139 311.816L154.919 310.805L153.868 305.999L153.798 305.675L151.429 294.818H218.847Z" fill="#E4705F"/>
<path fill-rule="evenodd" clip-rule="evenodd" d="M217.005 303.249L216.476 305.675H153.798L153.269 303.249H217.005Z" fill="#B74645"/>
<path fill-rule="evenodd" clip-rule="evenodd" d="M215.355 310.805L215.135 311.816L214.826 313.232H155.448L155.139 311.816L154.919 310.805H215.355Z" fill="#B74645"/>
<path fill-rule="evenodd" clip-rule="evenodd" d="M206.64 350.625L206.109 353.052H164.17L163.638 350.625H206.64Z" fill="#B74645"/>
<path fill-rule="evenodd" clip-rule="evenodd" d="M204.985 358.182L204.454 360.609H165.827L165.293 358.182H204.985Z" fill="#B74645"/>
<path fill-rule="evenodd" clip-rule="evenodd" d="M639.344 372.118C639.344 374.392 610.99 376.236 576.015 376.236C541.039 376.236 512.685 374.392 512.685 372.118C512.685 369.845 541.039 368.002 576.015 368.002C610.99 368.002 639.344 369.845 639.344 372.118Z" fill="black" fill-opacity="0.08"/>
<path fill-rule="evenodd" clip-rule="evenodd" d="M559.387 197.14C559.387 197.14 551.925 199.265 543.694 188.598C537.744 180.89 527.214 164.438 512.685 164.157C512.685 164.157 529.928 156.684 545.144 164.294C560.36 171.905 568.48 191.604 559.387 197.14Z" fill="#157663"/>
<path fill-rule="evenodd" clip-rule="evenodd" d="M563.834 228.038H563.809C563.537 228.024 563.328 227.792 563.342 227.52C563.346 227.418 563.825 217.136 561.78 205.433C559.904 194.689 555.458 180.512 544.937 173.984C544.705 173.841 544.634 173.538 544.778 173.305C544.922 173.074 545.225 173.003 545.456 173.147C550.254 176.123 554.231 180.852 557.276 187.199C559.699 192.25 561.542 198.333 562.755 205.281C564.814 217.091 564.331 227.465 564.326 227.57C564.312 227.833 564.095 228.038 563.834 228.038Z" fill="#1E3A34"/>
<path fill-rule="evenodd" clip-rule="evenodd" d="M565.038 173.651C565.038 173.651 572.591 171.883 574.602 158.559C576.055 148.931 577.264 129.436 589.826 122.13C589.826 122.13 571.125 123.978 561.525 138.023C551.924 152.069 554.4 173.232 565.038 173.651Z" fill="#157663"/>
<path fill-rule="evenodd" clip-rule="evenodd" d="M575.433 228.907C575.232 228.907 575.043 228.782 574.97 228.583C574.92 228.447 569.939 214.716 566.306 197.776C564.169 187.819 562.908 178.714 562.557 170.715C562.116 160.682 563.114 152.36 565.523 145.978C565.62 145.723 565.904 145.595 566.158 145.69C566.413 145.786 566.541 146.071 566.445 146.325C561.086 160.524 563.935 182.029 567.27 197.569C570.89 214.444 575.846 228.109 575.896 228.245C575.989 228.501 575.858 228.783 575.601 228.878L575.433 228.907Z" fill="#1E3A34"/>
<path fill-rule="evenodd" clip-rule="evenodd" d="M578.25 180.174C578.25 180.174 585.937 181.224 592.578 169.501C597.379 161.028 605.479 143.254 619.823 140.922C619.823 140.922 601.698 135.962 587.709 145.646C573.72 155.33 568.466 175.979 578.25 180.174Z" fill="#157663"/>
<path fill-rule="evenodd" clip-rule="evenodd" d="M579.427 228.908C579.196 228.908 578.99 228.745 578.944 228.509C578.918 228.381 576.401 215.422 576.327 199.925C576.285 190.813 577.082 182.614 578.697 175.557C580.724 166.699 584.057 159.615 588.6 154.504C588.779 154.3 589.091 154.282 589.295 154.463C589.497 154.644 589.517 154.955 589.335 155.158C579.278 166.476 577.246 185.747 577.313 199.921C577.386 215.325 579.886 228.192 579.911 228.319C579.964 228.586 579.79 228.846 579.523 228.898L579.427 228.908Z" fill="#1E3A34"/>
<path fill-rule="evenodd" clip-rule="evenodd" d="M591.457 198.104C591.457 198.104 598.782 200.66 607.621 190.49C614.009 183.14 625.478 167.331 640 167.896C640 167.896 623.223 159.432 607.589 166.143C591.955 172.855 582.702 192.048 591.457 198.104Z" fill="#157663"/>
<path fill-rule="evenodd" clip-rule="evenodd" d="M584.325 228.907C584.06 228.907 583.841 228.696 583.833 228.429C583.83 228.34 583.61 219.426 586.302 208.457C587.886 202.009 590.151 196.116 593.035 190.943C596.647 184.463 601.245 179.1 606.701 175.003C606.918 174.839 607.227 174.883 607.39 175.1C607.554 175.318 607.51 175.627 607.292 175.79C595.177 184.889 589.712 198.704 587.261 208.691C584.6 219.533 584.815 228.313 584.818 228.4C584.826 228.673 584.611 228.899 584.339 228.907H584.325Z" fill="#1E3A34"/>
<path fill-rule="evenodd" clip-rule="evenodd" d="M608.07 237.957C608.049 239.118 607.864 240.292 607.523 241.473C606.032 246.641 601.582 250.43 596.259 251.19C583.264 253.047 569.859 252.916 556.106 251.108C550.088 250.315 545.177 245.739 544.224 239.744C544.062 238.731 544.02 237.725 544.103 236.725C544.387 233.269 546.161 229.898 549.641 226.631H602.495C606.387 230.287 608.143 234.067 608.07 237.957Z" fill="#E4705F"/>
<path fill-rule="evenodd" clip-rule="evenodd" d="M578.115 243.319C561.237 243.319 550.345 240.045 544.179 237.297C543.93 237.186 543.819 236.895 543.93 236.647C544.041 236.398 544.332 236.286 544.58 236.398C550.658 239.106 561.41 242.334 578.115 242.334C589.912 242.334 599.845 240.741 607.638 237.599C607.89 237.496 608.178 237.619 608.279 237.871C608.38 238.124 608.258 238.41 608.007 238.513C600.095 241.702 590.038 243.319 578.115 243.319Z" fill="#B74645"/>
<path fill-rule="evenodd" clip-rule="evenodd" d="M616.161 328.946H536.361C535.853 328.946 535.442 328.534 535.442 328.026V323.401C535.442 322.892 535.853 322.481 536.361 322.481H616.161C616.669 322.481 617.082 322.892 617.082 323.401V328.026C617.082 328.534 616.669 328.946 616.161 328.946Z" fill="#3D1D18"/>
<path fill-rule="evenodd" clip-rule="evenodd" d="M539.029 250.829H613.656C614.896 250.829 615.902 251.835 615.902 253.076V262.244C615.902 263.484 614.896 264.49 613.656 264.49H539.029C537.789 264.49 536.783 263.484 536.783 262.244V253.076C536.783 251.835 537.789 250.829 539.029 250.829Z" fill="#713B28"/>
<path fill-rule="evenodd" clip-rule="evenodd" d="M565.366 264.491L531.458 373.791H525.274L547.227 264.491H565.366Z" fill="#713B28"/>
<path fill-rule="evenodd" clip-rule="evenodd" d="M547.227 264.491H565.366L563.093 271.818L545.336 273.9L547.227 264.491Z" fill="#3D1D18"/>
<path fill-rule="evenodd" clip-rule="evenodd" d="M627.597 373.791H621.413L587.505 264.491H605.641L606.099 266.775H606.101L627.597 373.791Z" fill="#713B28"/>
<path fill-rule="evenodd" clip-rule="evenodd" d="M606.099 266.775L588.842 268.8L587.505 264.491H605.641L606.099 266.775Z" fill="#3D1D18"/>
<path fill-rule="evenodd" clip-rule="evenodd" d="M615.199 314.886H537.325C536.285 314.886 535.442 314.044 535.442 313.003V310.303C535.442 309.263 536.285 308.42 537.325 308.42H615.199C616.239 308.42 617.082 309.263 617.082 310.303V313.003C617.082 314.044 616.239 314.886 615.199 314.886Z" fill="#713B28"/>
<path fill-rule="evenodd" clip-rule="evenodd" d="M453.916 66.9057H567.175V7.03564H453.916V66.9057Z" fill="#713B28"/>
<path fill-rule="evenodd" clip-rule="evenodd" d="M457.801 63.0212H563.289V10.9209H457.801V63.0212Z" fill="#E3CAB8"/>
<path fill-rule="evenodd" clip-rule="evenodd" d="M459.459 61.3631H561.631V12.5796H459.459V61.3631Z" fill="#FFFFFE"/>
<path fill-rule="evenodd" clip-rule="evenodd" d="M464.348 57.312H556.742V16.6301H464.348V57.312Z" fill="#EB9462"/>
<path fill-rule="evenodd" clip-rule="evenodd" d="M531.677 41.7569C531.677 50.3485 524.713 57.3121 516.122 57.3121C507.531 57.3121 500.567 50.3485 500.567 41.7569C500.567 33.1663 507.531 26.2026 516.122 26.2026C524.713 26.2026 531.677 33.1663 531.677 41.7569Z" fill="#FFFFFE"/>
<path fill-rule="evenodd" clip-rule="evenodd" d="M516.972 44.4006C516.972 44.4006 533.917 32.5606 556.742 32.3499V57.312H528.768L516.972 44.4006Z" fill="#1E3A34"/>
<path fill-rule="evenodd" clip-rule="evenodd" d="M464.348 42.0932C464.348 42.0932 482.379 33.1355 500.847 36.971C520.566 41.0661 535.653 57.3119 535.653 57.3119H464.348V42.0932Z" fill="#157663"/>
</svg>
