<svg width="36" height="32" viewBox="0 0 36 32" fill="none" xmlns="http://www.w3.org/2000/svg">
<path fill-rule="evenodd" clip-rule="evenodd" d="M34.7258 0C34.7258 0 29.8735 0.502879 20.4574 1.67782C8.71728 3.14395 5.46885 1.67782 5.46885 1.67782C4.92344 7.77621 3.18832 17.9568 0 28.1902C8.42886 30.54 19.4747 32.3186 28.1023 31.0004C28.1023 31.0004 37.1358 22.5826 34.7258 0Z" fill="#157663"/>
<path fill-rule="evenodd" clip-rule="evenodd" d="M25.226 30.7832C24.9866 30.7832 24.7841 30.5983 24.7657 30.3552C24.712 29.648 23.4826 12.9548 25.9729 5.81184C26.0571 5.57057 26.3205 5.443 26.5609 5.52712C26.8012 5.61124 26.9288 5.8747 26.8447 6.11598C24.419 13.0787 25.6743 30.1148 25.6873 30.2858C25.7076 30.5401 25.5163 30.7619 25.2611 30.7813L25.226 30.7832Z" fill="#1E3A34"/>
</svg>
